<?xml version="1.0" encoding="UTF-8"?><svg id="Capa_1" xmlns="http://www.w3.org/2000/svg" viewBox="0 0 540.94 215.43"><defs><style>.cls-1{letter-spacing:0em;}.cls-2{fill:#058036;}.cls-3{fill:#4a161a;}.cls-4{fill:#cccbcb;}.cls-5{letter-spacing:0em;}.cls-6{font-family:FuturaBT-Book, 'Futura Bk BT';font-size:26.46px;}.cls-6,.cls-7,.cls-8{fill:#1d1d1b;}.cls-9{fill:#fff;}.cls-10{fill:#ab9a54;}.cls-11{letter-spacing:0em;}.cls-12{fill:#0c672f;}.cls-13{fill:#75a8da;}.cls-14{fill:#fae929;}.cls-15{fill:#779ad0;}.cls-16{fill:#735214;}.cls-17{letter-spacing:-.03em;}.cls-18{fill:#73160d;}.cls-19{letter-spacing:0em;}.cls-20{letter-spacing:0em;}.cls-21{fill:#c7d29b;}.cls-22{letter-spacing:-.02em;}.cls-23{fill:#e2a912;}.cls-24{fill:#66a730;}.cls-25{letter-spacing:-.02em;}.cls-26{fill:#6f8ec0;}.cls-8{font-family:Montserrat-Bold, Montserrat;font-size:53.94px;font-weight:700;}</style></defs><path class="cls-14" d="M57.26,48.82s-1.91.55-2.5,1.52c-.88,1.43-3.46,4.71-5.82,5.39-2.1.6-2.95,3.48-2.95,3.48,0,0,.23-3.2,1.78-4.94.7-.78,2.41-2.52,3.03-3.36,1.27-1.72,2.25-5.08,2.25-5.08l-11.7,7.77,8.98-9.78s-5.53,2.06-7.32,1.89c-2.05-.2-5.96,1.31-5.96,1.31,0,0,1.87-2.93,3.91-3.01,2.56-.1,8.44-4.04,8.44-4.04l-.04-.29s-4.31.33-5.74.35c-1.73.02-6.91-.23-6.91-.23,0,0,5.01-1.94,6.68-2.48,1.52-.49,6.09-1.62,6.09-1.62l-.04-.25s-3.46-.47-6.07-.06c-1.21.19-3.89-1.33-5.47-1.65-1.36-.27-2.88.11-2.88.11,0,0,1.51-1.44,2.44-1.64,1.54-.32,5.41.56,6.98.42,1.16-.11,4.25-.99,4.25-.99v-.27s-4.37-1.69-5.78-2.31-5.51-2.73-5.51-2.73c0,0,4.52.3,6.03.49,1.79.22,7.21,1.07,7.21,1.07l.12-.1s-1.81-1.48-2.52-1.6c-.97-.16-3.32-.99-4.18-1.46-1.16-.62-2.45-2.34-3.63-2.93-.62-.32-2.19-.82-2.19-.82,0,0,1.92-.76,2.81-.64,1.28.18,3.48,1.99,4.71,2.38,1.56.49,5.74.9,5.74.9l.06-.18s-3.26-2.66-4.3-3.59c-1.42-1.26-5-4.71-5-4.71,0,0,4.58,1.89,6.27,2.73,1.58.78,6.31,3.39,6.31,3.39l.07-.13s-1.27-1.95-1.99-2.74c-.55-.6-1.87-1.6-2.34-2.26-.78-1.11-1.44-3.58-2.23-4.67-.42-.58-1.68-1.91-1.68-1.91,0,0,1.66.08,2.73.86,1.26.92,2.63,3.68,3.75,4.77,1.03,1,4.7,3.21,4.7,3.21l.09-.08s-1.84-4.64-2.4-6.19c-.69-1.92-2.23-7.01-2.23-7.01,0,0,3.48,4.45,4.73,6.21.86,1.22,3.36,5.02,3.36,5.02l.29-.1s.19-1.45-.37-3.05c-.44-1.26-1.02-4.1-.86-6.76.1-1.63-1.02-3.89-1.02-3.89,0,0,1.21.49,1.97,1.72.92,1.49,1.47,3.94,2.01,6.21.43,1.82,2.46,4.49,2.46,4.49l.43-.06s.53-5.14.72-6.81c.21-1.9,1-6.72,1-6.72,0,0,.97,4.91,1.27,6.81.25,1.61.78,6.27.78,6.27l.33.06s1.78-2.62,2.27-4.02c.51-1.47.46-4.69,1.24-6.04.45-.78,2.53-2.38,2.53-2.38,0,0-.93,2.36-1.12,3.16-.39,1.68.59,4.8-.14,6.29-.62,1.26-.84,3.61-.84,3.61l.43.1s2.83-4.5,3.79-6.01c1.04-1.63,3.94-5.62,3.94-5.62,0,0-1.4,5.08-2.01,7.03-.48,1.55-2.07,6.01-2.07,6.01l.41.2s2.48-1.98,3.24-2.87c.87-1.02,2.05-3.84,3.08-4.71.65-.55,2.83-1.05,2.83-1.05,0,0-.91,1.28-1.22,1.83-.65,1.15-1.23,3.89-1.92,5.02-.63,1.05-3.16,3.55-3.16,3.55l.43.45s3.31-2.19,4.43-2.89c1.44-.91,5.8-3.53,5.8-3.53,0,0-3.04,3.91-4.1,5.19-.79.95-3.32,3.69-3.32,3.69l.35.49s3.55-.69,4.76-1.35c1.06-.58,2.92-2.77,4.06-3.18.73-.26,2.75.14,2.75.14,0,0-2.01,1-2.32,1.72-.63,1.47-2.01,2.99-3.3,3.85-1.1.73-3.96,1.91-3.96,1.91l.18.68s4.36-.81,5.84-1.05c1.67-.27,6.78-.96,6.78-.96,0,0-4.73,2.52-6.31,3.3-1.25.62-4.98,2.4-4.98,2.4l.1.51s2.38.5,3.24.45c1.56-.08,4-.94,5.66-.88s3.5,1.38,3.5,1.38c0,0-2.17.03-3.03.38-1.27.51-3.71,1.62-5.21,1.91-.97.19-3.68.1-3.68.1l-.06,1.05s4.08.74,5.44,1.06c1.55.37,5.76,1.68,5.76,1.68,0,0-4.39.51-5.99.61-1.45.09-5.76.2-5.76.2l-.06.31s1.91,1.35,3.33,1.62c1.62.3,3.85.73,5.47,1.23,1.43.45,2.58,2.34,2.58,2.34,0,0-2.01-.68-2.99-.53-1.43.21-4.52.13-5.94-.1-1.04-.17-3.55-1.33-3.55-1.33l-.31.92s3.97,2.74,5.04,3.75c1.4,1.32,4.85,5.58,4.85,5.58l-10.86-5.99-.44,1.44s2.11,2.9,3.03,3.8c1.17,1.14,4.43,2.66,5.34,4.02.38.56.56,2.54.56,2.54,0,0-2.19-1.54-2.93-1.97-1.28-.75-3.79-1.29-5.28-2.4-1.25-.93-4.66-4.16-4.66-4.16,0,0-6.37,4.88-12.14,4.99-5.93.11-12.53-5.15-12.53-5.15Z"/><path class="cls-23" d="M45.59,61.37l.15-2.17c0-.13.25-3.3,1.84-5.08.22-.25.54-.59.9-.97.76-.81,1.7-1.81,2.12-2.37.9-1.22,1.66-3.31,2.01-4.36l-12.78,8.48,9.65-10.51c-1.67.58-5.12,1.71-6.51,1.57-1.97-.2-5.82,1.28-5.85,1.3l-.68.26.39-.62c.08-.12,1.96-3.04,4.11-3.12,2.15-.09,6.85-3.05,8.04-3.82-1.1.08-4.18.31-5.37.32-1.7.02-6.87-.22-6.92-.23l-1.13-.05,1.06-.41c.05-.02,5.04-1.95,6.7-2.48,1.19-.38,4.17-1.14,5.48-1.47-1.1-.11-3.49-.29-5.39,0-.78.12-2.01-.37-3.31-.88-.8-.32-1.62-.65-2.24-.77-1.29-.26-2.76.11-2.77.11l-.89.23.66-.63c.06-.06,1.57-1.49,2.56-1.7.89-.19,2.46,0,3.98.19,1.21.15,2.34.29,3.02.22.92-.08,3.11-.68,3.91-.9-.97-.38-4.32-1.68-5.51-2.22-1.4-.63-5.48-2.71-5.53-2.73l-1.04-.53,1.17.08s4.54.31,6.04.49c1.42.18,5.17.75,6.63.98-.62-.47-1.49-1.07-1.88-1.14-.96-.16-3.34-.99-4.25-1.48-.6-.32-1.22-.91-1.82-1.48-.61-.57-1.23-1.16-1.8-1.45-.6-.3-2.14-.8-2.16-.81l-.64-.2.62-.25c.08-.03,1.99-.78,2.93-.65.77.11,1.8.74,2.79,1.34.75.45,1.45.88,1.96,1.05,1.21.38,4.09.72,5.22.84-.87-.72-3.13-2.56-3.96-3.3-1.4-1.25-4.97-4.69-5.01-4.72l-.91-.88,1.17.48s4.61,1.9,6.29,2.73c1.22.61,4.36,2.32,5.7,3.05-.43-.63-1.13-1.65-1.59-2.15-.21-.24-.56-.54-.93-.87-.56-.49-1.14-1-1.43-1.42-.4-.57-.76-1.47-1.12-2.34-.36-.88-.73-1.79-1.11-2.33-.41-.56-1.65-1.87-1.66-1.88l-.41-.43.6.03c.07,0,1.75.09,2.86.91.74.54,1.5,1.66,2.22,2.73.55.82,1.08,1.6,1.55,2.06.78.76,3.19,2.27,4.2,2.89-.49-1.24-1.77-4.47-2.21-5.71-.69-1.91-2.22-6.97-2.24-7.02l-.37-1.23.79,1.01s3.5,4.47,4.74,6.22c.74,1.04,2.7,4.01,3.23,4.82.03-.44.04-1.55-.37-2.74-.44-1.28-1.04-4.15-.87-6.86.1-1.55-.99-3.75-1-3.77l-.28-.57.59.24c.05.02,1.29.54,2.08,1.82.9,1.46,1.44,3.75,1.97,5.97l.07.31c.36,1.55,1.95,3.76,2.33,4.29h.1c.1-.95.53-5.16.7-6.64.21-1.89,1-6.69,1.01-6.74l.21-1.31.26,1.3s.98,4.93,1.27,6.81c.22,1.41.66,5.23.76,6.1.36-.55,1.74-2.66,2.15-3.83.21-.6.32-1.52.44-2.49.17-1.37.34-2.78.81-3.6.47-.81,2.51-2.39,2.59-2.45l.69-.53-.32.81s-.93,2.35-1.11,3.13c-.16.7-.07,1.73.03,2.72.13,1.34.25,2.72-.19,3.62-.49.99-.72,2.72-.79,3.32h.06c.49-.77,2.84-4.5,3.7-5.85,1.03-1.62,3.91-5.59,3.94-5.63l.78-1.07-.35,1.27c-.01.05-1.41,5.11-2.01,7.04-.42,1.35-1.69,4.93-2,5.81l.08.04c.5-.41,2.44-1.99,3.09-2.74.36-.42.78-1.17,1.22-1.96.62-1.11,1.26-2.25,1.88-2.77.69-.58,2.84-1.08,2.93-1.1l.62-.14-.37.52s-.91,1.27-1.21,1.81c-.3.53-.6,1.47-.89,2.37-.32,1.01-.66,2.05-1.03,2.65-.55.92-2.45,2.84-3.03,3.43l.13.14c.69-.45,3.31-2.18,4.26-2.78,1.43-.9,5.76-3.5,5.8-3.53l1.1-.66-.79,1.01s-3.05,3.93-4.1,5.19c-.68.82-2.67,2.98-3.2,3.56l.15.21c.69-.14,3.52-.74,4.53-1.3.44-.24,1.04-.79,1.68-1.37.85-.77,1.73-1.57,2.41-1.82.77-.28,2.66.09,2.88.13l.68.14-.62.31c-.75.37-2,1.14-2.2,1.6-.61,1.42-1.97,3.01-3.39,3.96-.95.63-3.13,1.57-3.8,1.85l.07.26c.9-.17,4.35-.8,5.63-1.01,1.66-.26,6.74-.96,6.79-.96l1.33-.18-1.19.63s-4.76,2.53-6.32,3.3c-1.09.54-4.07,1.96-4.82,2.32l.03.17c.54.11,2.33.45,3.02.41.66-.03,1.5-.22,2.38-.41,1.15-.25,2.33-.51,3.3-.47,1.65.06,3.55,1.37,3.63,1.43l.61.43h-.75s-2.13.04-2.94.37c-.24.1-.53.22-.84.35-1.34.56-3.18,1.33-4.41,1.57-.82.16-2.81.13-3.5.11l-.03.61c.85.16,4.07.75,5.24,1.03,1.54.37,5.73,1.67,5.77,1.68l1.08.34-1.12.13s-4.42.51-6,.62c-1.24.08-4.58.17-5.52.2.5.33,1.95,1.25,3.05,1.45,1.96.36,3.97.76,5.49,1.24,1.5.47,2.67,2.36,2.72,2.44l.34.56-.62-.21s-1.96-.65-2.88-.52c-1.52.22-4.63.13-6.02-.1-.88-.15-2.7-.94-3.36-1.24l-.17.49c.74.52,3.96,2.76,4.92,3.67,1.4,1.32,4.73,5.43,4.87,5.61l.77.95-11.68-6.43-.32,1.04c.37.51,2.13,2.89,2.93,3.67.47.46,1.31.99,2.2,1.56,1.29.82,2.61,1.66,3.17,2.49.4.6.58,2.44.6,2.65l.05.52-.43-.3s-2.19-1.54-2.91-1.96c-.51-.3-1.24-.57-2.01-.86-1.12-.42-2.39-.89-3.29-1.56-1.11-.83-3.86-3.4-4.53-4.04-1.06.78-6.78,4.81-12.11,4.91-.07,0-.13,0-.2,0-5.56,0-11.51-4.45-12.38-5.13-.41.13-1.79.63-2.25,1.38-.73,1.19-3.4,4.76-5.96,5.5-1.94.56-2.78,3.29-2.79,3.32l-.62,2.09ZM53.47,45.26l-.18.63c-.04.14-1.01,3.42-2.29,5.16-.43.59-1.39,1.6-2.15,2.42-.35.38-.67.72-.89.96-.75.84-1.19,2.05-1.43,3.05.5-.81,1.26-1.67,2.35-1.99,2.23-.64,4.79-3.84,5.68-5.29.64-1.04,2.56-1.6,2.64-1.62l.12-.03.1.08c.06.05,6.61,5.21,12.37,5.1,5.62-.11,11.93-4.89,12-4.94l.16-.12.15.14s3.41,3.22,4.63,4.14c.85.63,2.08,1.09,3.17,1.5.79.29,1.54.57,2.09.89.54.32,1.83,1.2,2.51,1.67-.09-.66-.25-1.59-.46-1.91-.5-.75-1.85-1.6-3.03-2.36-.91-.58-1.77-1.13-2.28-1.62-.92-.9-2.97-3.71-3.06-3.83l-.07-.1.57-1.84,10.03,5.53c-1.1-1.34-3.08-3.69-4.04-4.6-1.05-.99-4.97-3.7-5.01-3.73l-.15-.1.45-1.34.24.11s2.49,1.14,3.48,1.31c1.34.22,4.43.31,5.87.1.67-.1,1.74.15,2.43.34-.44-.57-1.2-1.41-2.06-1.68-1.5-.47-3.5-.87-5.44-1.23-1.46-.27-3.34-1.6-3.42-1.66l-.13-.09.13-.65h.19s4.32-.12,5.75-.21c1.07-.07,3.42-.32,4.83-.48-1.36-.41-3.61-1.09-4.65-1.34-1.33-.32-5.38-1.05-5.42-1.06l-.21-.04.08-1.5h.23s2.7.09,3.63-.09c1.19-.23,2.99-.99,4.31-1.54.32-.13.6-.25.85-.35.56-.23,1.6-.32,2.32-.37-.68-.38-1.76-.9-2.71-.93-.9-.03-2.06.22-3.18.46-.9.2-1.75.38-2.45.42-.88.04-3.2-.44-3.3-.46l-.16-.03-.17-.85.17-.08s3.74-1.78,4.98-2.4c1.06-.53,3.6-1.86,5.11-2.66-1.64.23-4.32.6-5.44.78-1.46.23-5.79,1.04-5.84,1.04l-.22.04-.3-1.09.2-.08s2.85-1.17,3.91-1.88c1.34-.9,2.64-2.4,3.21-3.75.23-.53,1.16-1.14,1.81-1.51-.67-.1-1.55-.18-1.94-.04-.59.21-1.47,1.02-2.25,1.72-.66.6-1.28,1.17-1.77,1.44-1.22.67-4.68,1.35-4.83,1.38l-.15.03-.55-.78.13-.14s2.53-2.75,3.31-3.68c.71-.85,2.32-2.91,3.3-4.16-1.39.84-3.72,2.25-4.69,2.86-1.1.69-4.39,2.87-4.42,2.89l-.17.11-.73-.77.17-.17s2.51-2.49,3.12-3.5c.34-.56.66-1.57.98-2.55.31-.97.61-1.88.93-2.46.18-.33.57-.9.86-1.32-.73.2-1.73.53-2.1.84-.55.47-1.2,1.62-1.77,2.64-.46.82-.89,1.59-1.27,2.04-.77.9-3.17,2.82-3.27,2.9l-.12.1-.74-.37.07-.2s1.59-4.47,2.07-6c.41-1.31,1.19-4.09,1.65-5.73-.93,1.3-2.46,3.44-3.14,4.52-.96,1.51-3.79,6-3.79,6l-.09.15-.8-.19.02-.21c0-.1.23-2.41.86-3.69.38-.78.26-2.09.14-3.37-.1-1.08-.2-2.1-.02-2.88.12-.51.52-1.59.81-2.36-.68.56-1.53,1.33-1.78,1.75-.42.74-.59,2.1-.75,3.42-.12,1-.24,1.94-.46,2.58-.49,1.41-2.22,3.97-2.3,4.08l-.09.13-.66-.12-.02-.18s-.53-4.68-.78-6.26c-.2-1.26-.7-3.88-1.01-5.48-.25,1.57-.65,4.13-.79,5.38-.19,1.66-.72,6.8-.72,6.8l-.02.19-.76.11-.09-.11c-.08-.11-2.07-2.73-2.5-4.58l-.07-.31c-.51-2.18-1.04-4.44-1.91-5.83-.37-.6-.86-1.02-1.25-1.28.33.81.82,2.21.75,3.34-.16,2.63.42,5.43.85,6.67.57,1.64.39,3.1.38,3.16l-.02.15-.6.22-.1-.16s-2.51-3.82-3.36-5.01c-.87-1.22-2.82-3.75-3.93-5.18.5,1.63,1.38,4.45,1.85,5.76.55,1.53,2.38,6.14,2.4,6.18l.06.15-.33.32-.16-.1c-.15-.09-3.7-2.24-4.74-3.24-.51-.49-1.05-1.29-1.62-2.13-.7-1.04-1.43-2.12-2.11-2.61-.6-.43-1.4-.64-1.96-.74.41.44.98,1.08,1.25,1.45.42.58.8,1.52,1.17,2.43.34.85.7,1.73,1.07,2.25.26.37.84.88,1.35,1.34.38.33.73.65.97.9.72.8,1.96,2.69,2.01,2.77l.08.12-.25.47-.21-.12s-4.74-2.61-6.3-3.38c-1.13-.56-3.6-1.61-5.07-2.23,1.16,1.11,3.12,2.97,4.07,3.82,1.03.92,4.26,3.55,4.3,3.58l.13.1-.17.52-.19-.02c-.17-.02-4.22-.42-5.79-.91-.57-.18-1.3-.62-2.07-1.09-.95-.58-1.94-1.18-2.61-1.28-.49-.07-1.38.17-2.04.39.51.18,1.2.43,1.57.61.63.32,1.28.93,1.91,1.53.58.55,1.18,1.11,1.72,1.4.86.46,3.21,1.28,4.11,1.43.76.13,2.44,1.49,2.63,1.65l.23.18-.43.36-.11-.02c-.05,0-5.44-.84-7.21-1.06-1.01-.13-3.39-.3-4.83-.41,1.31.66,3.5,1.76,4.45,2.18,1.39.62,5.71,2.29,5.75,2.31l.14.06.03.61-.18.05c-.13.04-3.13.89-4.3,1-.72.07-1.89-.07-3.12-.22-1.48-.18-3.02-.37-3.83-.2-.47.1-1.15.58-1.68,1.02.58-.07,1.36-.11,2.12.04.66.13,1.47.45,2.32.8,1.18.47,2.41.96,3.06.85,2.61-.41,5.99.04,6.14.06l.18.02.11.64-.22.05s-4.57,1.13-6.07,1.61c-1.17.38-4.03,1.46-5.6,2.06,1.63.07,4.55.18,5.75.17,1.41-.01,5.68-.34,5.72-.35l.22-.02.09.66-.13.08c-.24.16-5.97,3.97-8.57,4.08-1.33.05-2.62,1.44-3.27,2.28,1.25-.43,3.78-1.22,5.34-1.06,1.7.18,7.15-1.85,7.21-1.87l.94-.35-8.32,9.06,10.61-7.04Z"/><path class="cls-23" d="M76.15,34.41c-.12,0-.24,0-.36-.01-1.92-.11-3.66-.85-3.74-.88l-.29-.12.2-.25c.05-.07,1.31-1.61,3.87-1.77,2.15-.13,4,.91,4.06,1.66.01.12-.04.24-.16.36-.43.44-1.99,1.02-3.59,1.02ZM72.57,33.2c.59.22,1.89.64,3.25.72,1.75.1,3.39-.6,3.6-.88-.11-.37-1.6-1.31-3.55-1.19-1.75.11-2.84.93-3.29,1.35Z"/><path class="cls-23" d="M76.22,34.36c-.97,0-1.77-.65-1.77-1.45s.79-1.45,1.77-1.45,1.77.65,1.77,1.45-.79,1.45-1.77,1.45ZM76.22,31.83c-.78,0-1.41.49-1.41,1.09s.63,1.09,1.41,1.09,1.41-.49,1.41-1.09-.63-1.09-1.41-1.09Z"/><path class="cls-23" d="M76.19,33.58c-.65,0-1.18-.44-1.18-.98s.53-.98,1.18-.98,1.18.44,1.18.98-.53.98-1.18.98ZM76.19,31.99c-.45,0-.82.28-.82.62s.37.62.82.62.82-.28.82-.62-.37-.62-.82-.62Z"/><path class="cls-23" d="M71.73,31.94s2.23-1.81,4.52-1.64c2.64.2,4.67,2.12,4.52,2.44-.16.35-1.66-1.51-4.03-1.77-2.01-.22-5.01.98-5.01.98Z"/><path class="cls-23" d="M81.79,31.1s-2.18-2.4-5.7-2.7c-2.33-.2-5.24,1.79-5.1,2.1.22.49,1.48-1.57,4.92-1.28,2.76.23,5.88,1.88,5.88,1.88Z"/><path class="cls-23" d="M61.93,34.73c-.12,0-.24,0-.36-.01-1.92-.11-3.66-.85-3.74-.88l-.29-.12.2-.25c.05-.07,1.31-1.61,3.87-1.77,2.16-.13,4,.91,4.06,1.66.01.12-.04.24-.16.36-.43.44-1.99,1.02-3.59,1.02ZM58.35,33.52c.59.22,1.89.64,3.25.72,1.75.1,3.4-.6,3.6-.88-.11-.37-1.59-1.31-3.55-1.19-1.75.11-2.84.93-3.29,1.35Z"/><path class="cls-23" d="M62,34.68c-.97,0-1.77-.65-1.77-1.45s.79-1.45,1.77-1.45,1.77.65,1.77,1.45-.79,1.45-1.77,1.45ZM62,32.15c-.78,0-1.41.49-1.41,1.09s.63,1.09,1.41,1.09,1.41-.49,1.41-1.09-.63-1.09-1.41-1.09Z"/><path class="cls-23" d="M61.97,33.9c-.65,0-1.18-.44-1.18-.98s.53-.98,1.18-.98,1.18.44,1.18.98-.53.98-1.18.98ZM61.97,32.31c-.45,0-.82.28-.82.62s.37.62.82.62.82-.28.82-.62-.37-.62-.82-.62Z"/><path class="cls-23" d="M57.03,33.21s1.73-2.06,4.01-2.27c2.63-.24,4.59.77,4.5,1.11-.1.37-1.63-.87-4.01-.73-2.02.12-4.5,1.89-4.5,1.89Z"/><path class="cls-23" d="M56.02,31.78s2.18-2.52,5.7-2.81c2.82-.23,5.04,1.23,4.87,1.53-.3.54-1.92-1.09-5.35-.8-2.76.23-5.22,2.08-5.22,2.08Z"/><path class="cls-13" d="M117.18,114.77c.05,1.03,0,2.78,0,2.78l-48.39.15-50.1-.44v-2.49c0-36.23,22.05-63.2,49.25-63.2s47.33,27.2,49.25,63.2Z"/><path class="cls-10" d="M67.08,133.31v-43.99h3.7v43.91s-3.61-.02-3.7.07Z"/><path class="cls-16" d="M66.96,133.6v-44.4h3.94v44.15h-.12c-1.29,0-3.37,0-3.64.06l-.19.19ZM67.2,89.45v43.73c.32-.03,1.15-.06,3.46-.05v-43.67h-3.46Z"/><path class="cls-3" d="M97.32,128.62c-.73-1.54-2.49-1.83-4.68-1.35-1.48.33-5.24,2.89-5.24,2.89l-3.84-2.75s.93-1.39,1.5-1.6c1.19-.43,1.61.47,2.51.76.69.23,1.6,0,1.92-.81,1.14-2.86-3.7-3.06-6.23-1.11-3.23,2.49-4.56,7.55-4.56,7.55,0,0-2.23-1.16-5.85-1.11-4.13.05-9.82,2.39-12.98,3.71-2.34.97-6.34.88-6.34.88,0,0,.97-2.03-1.42-2.77-1.54-.48-4.25-.43-4.05,2.23.11,1.43,2.15,3.27,4.36,3.37,4.08.19,11.48-2.18,16.46-2.18,1.62,0,6.53.03,6.73,1.38.08.52-2.56.52-2.56.52l-11.42.05s.15,2.43,1.14,3.9c.83,1.22,2.75,2.55,2.75,2.55h13.04s-.03-2.57.49-3.2c1.06-1.3,6.09-.47,6.36-2.13.13-.81-2.74-1.89-2.74-1.89,0,0,5.83-5.04,8.59-6.34,1.05-.49,3.09.38,4.05.3.87-.07,2.95-.84,2-2.84ZM81.49,135.06l-1.14-1.61,2.84-5.18,3.21,2.63-4.92,4.17Z"/><path class="cls-18" d="M62.65,139.06h10.94s-.29,1.81-.99,2.84c-.68,1.01-2.18,1.87-2.18,1.87h-4.46s-1.87-1.14-2.58-2.08c-.56-.73-.73-2.63-.73-2.63Z"/><path class="cls-18" d="M72.5,143.57s3.24-1.13,4.49-2.41c1-1.03,1.93-2.51,1.85-3.74-.2-3.16-4.26-3.44-4.26-3.44l3.49,2.61h-2.13s-1.52-1.13-2.11-1.32c-1.61-.48-5.02-.06-6.69.07-2.61.2-6.83,1.29-9.32,1.6-1.48.18-4.7.37-6.07-.19-.72-.3-.33-1.76-.33-1.76,0,0-1.05-.4-.89-.96.15-.51.9-.34,1.2-.26,1.1.31,0,1.88.36,2.24,1,.97,5.93.11,7.49-.27,3.26-.78,8.71-5.01,16.58-3.19,3.98.93,4.54,4.45,4.54,4.45l6.19-5.5s4.07-3.26,6.42-3.52c.68-.08,2.68-.08,2.51.74-.13.61-1.11-.16-1.94-.09-2.06.19-5.19,2.65-6.89,3.83-1.55,1.07-5.6,5.04-5.6,5.04,0,0,1.62,1.1,1.37,1.6s-1.86-.18-2.3-.04c-.29.09-3.83,4.49-3.83,4.49h-4.1Z"/><path class="cls-18" d="M79.2,132.47s2.13-4.79,4.14-6.64c.77-.71,2.64-1.8,3.49-1.8.37,0,1.21.09,1.29.69.05.41-.42,1.11-1.98.37-.58-.28-1.97.6-2.41,1.09-.4.44-1.37,1.81-2.35,3.49-.91,1.55-1.52,3.09-1.52,3.09l-.65-.29Z"/><path class="cls-4" d="M67.64,183.16c-27.26,0-49.43-29.62-49.43-66.04s22.18-66.04,49.43-66.04,49.43,29.62,49.43,66.04-22.18,66.04-49.43,66.04ZM67.64,52.05c-26.73,0-48.47,29.19-48.47,65.08s21.75,65.08,48.47,65.08,48.47-29.19,48.47-65.08-21.75-65.08-48.47-65.08Z"/><path class="cls-2" d="M6.27,123.02s-1.8-3.08-2.76-4.12c-.69-.75-2.09-2.22-2.56-1.88-.28.2.34,2.21.92,5.04.72,3.52,1.48,9.2,2.2,11.92,1.32,5.01,4.12,8.56,4.12,8.56l-1.92-19.53Z"/><path class="cls-24" d="M1.31,117.3s2.1,5.46,2.73,7.3c.57,1.68,2.02,5.92,2.02,5.92l1.29,10.31s-.82-1.1-1.14-1.7c-.74-1.37-1.67-4.4-2.02-5.92-.73-3.16-1.54-8.98-2.08-11.63-.29-1.44-.79-4.29-.79-4.29Z"/><path class="cls-2" d="M6.11,120.74S.27,113.92.01,104.84c-.14-4.91.82-13.3,1.42-13.56.67-.29,2.17,5.04,3.37,8.73,1.15,3.56,1.21,10.32.96,14.06-.11,1.6.34,6.66.34,6.66Z"/><path class="cls-24" d="M1.52,92.84s.63,8.27,1,10.88,1.9,9.62,1.9,9.62c0,0-1.21-2.13-1.7-1.77-.35.26,2.42,7.86,2.42,7.86,0,0-4.53-6.86-4.8-14.23-.29-7.87,1.19-12.36,1.19-12.36Z"/><path class="cls-2" d="M2.87,111.78c-.25.18,2.37,5.92,2.74,9.48.36,3.43.51,7.23.9,10.71,1.07,9.55,2.45,16.38,2.45,16.38l.69-4.36s-.6-1.93-.58-2.58c.11-3.17,3.82-8.65,2.78-14.39-.9-4.95-8.79-15.39-8.98-15.25Z"/><polygon class="cls-24" points="4.42 114.2 10.55 135.33 8.78 141.24 9.5 143.62 9.01 143.75 10.68 148.82 8.87 147.14 7.09 134.64 5.68 120.11 3.66 113.29 4.42 114.2"/><path class="cls-2" d="M6.3,151.13s-.7-5.96-.52-6.17c.29-.36,5.74,4.52,5.74,4.52l2.26,6.61-7.48-4.96Z"/><polygon class="cls-24" points="6.13 145.65 11.13 151.96 11.47 153 6.39 149.39 6.13 145.65"/><path class="cls-2" d="M13.82,148.18s.09-.17.24-.44c.41-.73,1.22-2.18,1.63-2.69.56-.7,2.13-2.55,2.57-2.43.52.13,2.43,6.87,2.52,9.35.22,5.65-1.87,11.13-1.87,11.13l-5.09-14.91Z"/><path class="cls-24" d="M15.81,149.37c.61.88,1.66,3.24,1.66,3.24l.55-9.65s-.92.7-1.99,2.09c-.43.56-1.63,2.28-1.56,2.5.06.2.89,1.15,1.35,1.82Z"/><path class="cls-2" d="M25.95,170.28s-1.84-1.58-2.32-2.17c-1.53-1.84-3.38-5.92-4.06-8.22-.74-2.51-2.2-7.19-3.29-9.27-.66-1.26-2.43-3.47-3.42-4.49-.79-.81-3.29-2.74-3.84-2.37-.3.2,3.69,9.76,3.17,9.96-.27.1-8.4-6.26-8.69-5.95-.37.4,4.12,8.82,5.85,11.59,2.91,4.68,11.11,10.61,11.11,10.61l5.5,3.46v-3.14Z"/><path class="cls-24" d="M4.11,148.73s3.99,3.36,6.33,6.21c2.31,2.81,6.88,9.39,6.88,9.39,0,0-5.34-9.76-4.95-10.36.42-.64-.84-3.64-1.22-4.66-.48-1.27-1.72-4.68-1.72-4.68,0,0,3.25,3.1,5.08,6.86,1.58,3.24,5.23,12.02,8.1,16.41.69,1.05,3,3.98,3,3.98,0,0-3.26-1.01-4.21-1.6-4.48-2.81-9.62-8.11-10.63-9.35-1.34-1.65-3.23-4.99-4.47-7.46-1.59-3.16-2.19-4.74-2.19-4.74Z"/><path class="cls-2" d="M28.25,171.35s.1-3.25.28-4.31c.15-.87.52-3.14.73-3.26.24-.15,5.44,6.73,7.21,10.31,2.91,5.88,1.57,9.67,1.57,9.67l-9.79-12.41Z"/><path class="cls-2" d="M26.92,172.72s-11.67-4.71-11.88-4.23c-.17.39,2.69,5.89,4.89,7.95.82.77,3.9,2.79,5.79,3.15,1.67.32,5.58.36,5.58.36l-4.38-7.23Z"/><path class="cls-24" d="M15.42,168.73l12.31,7.89,2.31,3.09s-3.95-.12-5.35-.67c-3.62-1.41-5.11-3.37-6.33-4.81-1.5-1.76-2.94-5.51-2.94-5.51Z"/><path class="cls-2" d="M46.5,188.39s-6.35-5.07-9.28-7.86c-3.48-3.31-12.41-13.91-13.01-14.17-.42-.18,2.42,7.52,3.66,9.9,1.62,3.11,5.7,6.11,5.56,6.37-.05.1-3.76-1.78-6.97-2.74-1.84-.55-7.61-1.83-7.74-1.55-.15.32,4.93,4.49,8.86,6.11,4.49,1.85,9.97,2,9.97,2l3.98,2.3,4.97-.39Z"/><path class="cls-24" d="M19.81,179.09s6.39,2.89,8.74,3.6c2.74.84,6.51,1.2,6.51,1.2,0,0-5.01-4.57-6.45-6.87-2.77-4.43-3.85-9.41-3.85-9.41,0,0,4.43,6.92,7.47,10.4,3.89,4.44,11.57,9.61,11.57,9.61l-3.37.13-2.82-1.54s-5.17-.18-9.85-1.96c-3.63-1.38-7.96-5.17-7.96-5.17Z"/><path class="cls-2" d="M65.75,194.69l-20.1-.32s-14.21-4.14-14.15-4.75c.05-.56,7.53-2.03,11.37-2.03,4.09,0,8.62,2.14,8.73,1.97.14-.2-4.12-3.95-5.77-6.38-2.16-3.18-2.15-5.43-1.82-5.8.41-.46,8.11,4.07,10.62,5.89,3.09,2.24,11.63,10.44,11.63,10.44l-.52.98Z"/><path class="cls-24" d="M53.63,192.73l10,1.68-8.17-.18-9.93-.19-12.15-3.81s4.12-.53,10.51.06c6.14.56,9.73,2.45,9.73,2.45Z"/><path class="cls-24" d="M50.62,184.9c2.68,1.94,10.1,6.57,10.1,6.57l.12.76s-3.27-.19-5.24-.74c-1.02-.29-3.6-1.98-3.6-1.98,0,0-4.28-4.55-5.66-6.17-1.22-1.44-1.9-3.41-2.11-4.68-.07-.4,0-1,0-1,0,0,3.11,4.86,6.39,7.24Z"/><path class="cls-2" d="M11.39,78.03s.21-3.1,1.24-4.95c.53-.96,2.64-3.33,2.94-3.19.21.09.32,2.27.44,2.96.17.96.88,3.4.88,3.4l-1.93,5.27-1.76.65-1.82-4.15Z"/><path class="cls-24" d="M13.93,80.65s.29-3.28.44-4.91c.09-.96.46-4.93.46-4.93,0,0-1.32,1.01-2.27,3.1-.54,1.18-.8,3.06-.8,3.06,0,0,.97,1.29,1.22,1.74.31.56.96,1.95.96,1.95Z"/><path class="cls-2" d="M9.66,101.19s.97-5.69,1.16-7.59c.17-1.77-.18-4.45-.18-4.45,0,0-1.47-3.7-1.65-5.03-.19-1.42.08-4,.26-5.42.2-1.57-.38-3.72-.06-3.86.26-.11,1.96,1.95,2.7,2.78,1.01,1.16,2,3.86,2,3.86h.2s1.12-3.68,1.71-4.93c.53-1.12,2.46-4.2,2.75-4.17.25.02,1.02,3.28,1.19,4.52.11.84.15,3.21.41,3.3.23.09,2.06-1.51,3.31-1.91.92-.3,3.68-.89,3.85-.55.12.23-2.35,1.68-3.04,2.73-1.39,2.08-2.58,6.89-4.03,8.93-1.97,2.78-6.41,6.29-6.41,6.29l-2.98,8.49-.49-1.61-.7-1.38Z"/><path class="cls-24" d="M12.46,95.24s1.99-1.85,2.56-2.55c1.06-1.3,2.8-4.17,3.68-5.59.52-.83,1.43-2.57,1.97-3.39.56-.86,2.43-3.33,2.43-3.33l2.52-2.17s-1.05,0-2.5.55c-.75.29-3.17,1.93-3.17,1.93,0,0,.03,3.19-1.44,5.87-1.87,3.41-4.28,4.32-4.28,4.32,0,0,2.28-6.92,2.82-9.28.49-2.13,1.34-8.63,1.34-8.63,0,0-1.8,1.96-2.82,4.7-.41,1.1-1.47,4.29-1.47,4.29,0,0,.48,4.4.36,5.88-.12,1.46-1.28,5.77-1.28,5.77,0,0-1.08-8-1.59-10.64-.4-2.05-1.98-6.92-1.98-6.92,0,0-.44,5.97-.42,7.14.05,2.37,1.79,6.06,1.79,6.06,0,0,.24,3.03.02,5.26-.1.94-.64,4.08-.64,4.08l.47,3.57,1.62-6.9Z"/><path class="cls-2" d="M35.72,44.04c-.34-.21-5.68,5.68-7.4,9.33-1.6,3.42-2.49,12.44-2.08,12.59.32.11,5.16-8.84,6.56-12.27.96-2.35,3.24-9.44,2.91-9.65Z"/><path class="cls-24" d="M35.39,44.6l-4.81,10.57-4.16,9.65s.48-8.58,2.55-12.03c3.47-5.75,6.42-8.2,6.42-8.2Z"/><path class="cls-24" d="M34.43,177.27l-5.1-13.09s-.42,1.73-.62,3.34c-.13,1.1-.19,3.14-.19,3.14l5.9,6.62Z"/><path class="cls-2" d="M8.43,116.56s-4.41-6.12-4.37-13.19c.02-3.52,4.1-12.92,4.55-12.83.71.14,1.35,9.05,2.3,13.55.66,3.15-2.48,12.47-2.48,12.47Z"/><path class="cls-24" d="M8.61,91.26l-.54,24.26s-4.43-6.77-3.74-12.38c.95-7.7,4.28-11.88,4.28-11.88Z"/><path class="cls-2" d="M14.02,101.58s2.22-1.86,2.92-2.54,2.44-3.23,2.76-3c.3.22-1.19,5.36-2.87,7.87-.93,1.39-4.22,5.25-4.22,5.25l1.41-7.57Z"/><path class="cls-12" d="M14.24,101.71l-1.23,6.6c.99-1.17,2.95-3.53,3.62-4.53,1.44-2.17,2.71-6.25,2.85-7.38-.32.3-.89,1.01-1.29,1.52-.42.53-.82,1.03-1.09,1.3-.64.62-2.49,2.18-2.87,2.5Z"/><path class="cls-24" d="M19.19,97.01s-1.57,2.38-2.12,3.15c-.69.97-2.85,3.8-2.85,3.8l.47-2.56s1.64-1.38,2.14-1.87c.62-.61,2.36-2.52,2.36-2.52Z"/><path class="cls-2" d="M22.12,64.82s1.8-3.03,2.52-3.96c.86-1.11,3.46-4.29,3.77-4.1.26.16-3.53,10.85-3.53,10.85l-1.98,2.64-1.25-.49.47-4.94Z"/><path class="cls-24" d="M22.58,69.23l5.32-11.75s-1.37,1.35-2.81,3.24c-.99,1.3-2.23,3.42-2.23,3.42,0,0-.09,2.78-.19,3.65-.08.75-.09,1.44-.09,1.44Z"/><path class="cls-2" d="M39.96,49.06s4.8-2.69,6.5-3.18c2.34-.66,9.36-1.78,9.59-1.31.2.39-5.79,4.63-8.43,5.76s-11.2,3.86-11.2,3.86l3.53-5.14Z"/><path class="cls-24" d="M55.02,44.84l-15.98,7.37,2.41-3.68s3.5-1.87,5.44-2.44c3.83-1.12,8.14-1.25,8.14-1.25Z"/><path class="cls-2" d="M22.21,71.27s.36-5.57.42-7.51c.05-1.68,0-6.72-.33-6.83-.52-.16-3.71,5.77-4.07,8.22-.57,3.79,1.7,10.29,1.7,10.29l2.28-4.17Z"/><path class="cls-24" d="M22.14,57.42l-2.26,17.02s-1.98-6.05-1.39-9.28c.68-3.75,3.65-7.75,3.65-7.75Z"/><path class="cls-2" d="M7.86,119.74s.63-8.88,1.38-11.84c1.06-4.18,5.4-12.25,5.95-11.96.41.22-1.81,9.93-2.12,13.28-.51,5.5-4.12,12.19-4.12,12.19l-1.09-1.67Z"/><path class="cls-24" d="M14.6,97.09s0,.68-.32,1.87c-.75,2.83-2.32,8.04-2.88,10.2-.76,2.93-2.9,11.61-2.9,11.61l-.35-1.93s.49-7.85,1.44-11.08c1.6-5.44,5.02-10.67,5.02-10.67Z"/><path class="cls-2" d="M19.76,75.82c-.15-.18,2.02-6.44,5.8-9.7,3.52-3.04,10.64-5.76,11.12-5.32.33.3-6.88,8.17-8.98,10.18-3.2,3.08-7.76,5.06-7.95,4.84Z"/><path class="cls-24" d="M35.99,61.11s-6.43,5.51-8.61,7.39c-1.78,1.54-7.09,6.35-7.09,6.35,0,0,1.91-5.61,5.61-8.67,4.54-3.75,10.09-5.07,10.09-5.07Z"/><path class="cls-2" d="M30.08,59.8s.88-6.48,4.4-10.56c2.63-3.05,9.32-6.36,9.6-5.96.26.37-5.2,9-6.4,10.44s-7.6,6.08-7.6,6.08Z"/><path class="cls-24" d="M43.68,43.68l-11.23,12.62-1.77,1.58s1.53-6.03,4.23-8.71c4.79-4.73,8.77-5.5,8.77-5.5Z"/><path class="cls-2" d="M27.04,62.56c-.19-.34,4.32-5.92,8.2-7.72,4.37-2.03,12.16-2.4,12.36-1.84.09.25-6.88,4.79-9.28,6.28-4.76,2.96-11.08,3.64-11.28,3.28Z"/><path class="cls-24" d="M46.99,53.07l-19.36,8.91s3.76-5.33,8.09-7.04c5.15-2.03,11.27-1.87,11.27-1.87Z"/><path class="cls-2" d="M67.63,89.79l-.6.27s-.62,1.44-.71,1.84c-.15.65-.2,2.36-.2,2.36,0,0-.55-1.68-.52-1.13.03.67-.69,1.85-.83,2.41-.15.59-.26,2.4-.26,2.4,0,0-.53-.76-.62-1.08-.1-.34-.03-.76-.06-1.11-.08-1.05-.72,1.78-.85,2.65-.08.52-.13,2.53-.13,2.53,0,0-.57-.64-.69-.9-.24-.51-.14-1.06-.28-1.38-.08-.17-.52,1.04-.49,2.41.01.5.19,2.53.19,2.53,0,0-.48-.63-.62-.89-.22-.39-.07-.97-.31-1.07-.28-.12-.91,2.36-.99,3.2s-.05,2.83-.19,2.81c-.08-.01-.5-.88-.57-1.21-.11-.45.03-2.02-.05-2.06-.1-.05-.52.97-.61,1.33s-.1,1.42-.17,1.39c-.27-.1-.28-2.84-.05-3.81.32-1.32,1.43-2.81,1.5-2.94.15-.29-1.28,1.13-1.22.88.14-.61.7-1.82,1.07-2.35s1.86-1.94,1.75-2.05c-.09-.09-.39.23-.69.44-.32.23-.71.66-.75.48-.04-.17,1.16-2.01,1.63-2.78.69-1.12,2.57-2.75,2.54-2.84-.03-.11-.45.08-.9.37s-.83.81-.93.67c-.06-.09.99-1.84,1.44-2.5.21-.3,1.02-1.4.92-1.5s-.92.94-1.07.81c-.17-.14.75-1.07.69-1.19-.08-.14-1.37.67-1.76.98-.84.66-1.59,1.59-1.71,1.56-.33-.07.63-1.47.5-1.58-.1-.08-1.38.78-1.72,1.09-.51.48-.93,1.47-1.07,1.38-.17-.11.66-1.59.52-1.7-.1-.08-1.02,1.12-1.3,1.54s-.83,1.72-.97,1.7c-.16-.02.23-1.47.13-1.51-.12-.05-1.15,1.61-1.44,2.14-.42.76-.37,2.21-.46,2.37-.07.12-.34-.7-.36-1.23,0-.32.11-1.31-.03-1.3-.19.01-.41,1.78-.43,2.38s.2,2.24.06,2.3c-.2.09-.66-2.28-.84-2.27-.09,0-.41,1.43-.46,1.94-.06.54.02,2.23-.07,2.25s-.28-1.11-.42-1.1c-.12,0-.47,1.23-.54,1.67-.05.34.06,1.48.06,1.51,0,.4-.77-.8-.9-1.17-.11-.3-.18-1.26-.29-1.16-.34.3-1.03,2.92-1.13,2.31-.15-.91.17-2.33.47-3.04s.83-1.36,1.03-1.52c.22-.17-.82.16-1.07.28-.22.11-.88.9-.8.67.34-1,1.09-2.2,1.57-2.86.35-.49,1.22-1.65,1.46-1.9.27-.27-1.08.56-1.35.68-.64.26,1.07-1.94,1.55-2.44.45-.47,1-1.03,2.1-1.75.28-.18-1.55.31-1.43.18.43-.46,1.48-1.34,1.98-1.73.65-.5,1.55-.86,2.34-.95.62-.07-1.75.05-2.1-.03-.8-.18,2.18-.97,2.94-.99.53-.01,1.65.13,2.05.41.32.23-1.15-1.65-.75-1.37.48.33,1.67.58,2.25.66.4.05,1.5.05,1.44,0s-.48-1.05-.75-1.35c-.22-.24,1.68.6,2.27.74.7.16,2.21.13,2.91.22.83.11-2.54-1.65-3.36-1.81-1.23-.24-3.28.2-3.26.14s.9-.9,1.38-1.27c.4-.31-1.44.05-2.1.2-.85.2-1.68.85-2.14,1.07-.37.17,1.2-1.27.97-1.23-.73.1-1.86.07-2.9.75s-1.84,1.86-2.37,2.29c-.37.31.29-1.66.42-2.11.16-.53-1.38,1.32-1.74,1.81-.33.44-.95,1.45-1.27,1.86-.28.36.1-1.4.24-1.88.17-.6-1.53,1.42-1.86,1.95-.43.7-.81,1.86-1.2,2.94-.22.61-.33-1.86-.25-2.5.06-.5.81-2.3.5-2.01-.24.22-1.32.88-1.18.58.28-.61,1.49-1.78,2.05-2.16s1.68-.88,2.33-1.09c.48-.16-1.5-.16-2.03-.13-.65.03,1.64-1,2.27-1.13,1.23-.27,2.29-.05,2.86-.09.51-.03-1.21-.63-1.91-.71-.62-.08,1.79-.67,2.42-.66.48.01,1.32.2,1.88.45.37.17-.84-1.14-1.02-1.41-.33-.49,1.39.69,2.26.93.48.13,1.36.31,1.95.54.25.1-.65-.7-.71-.96-.13-.55,2.02,1.67,3.23,1.56.27-.02-.02-1.38.05-1.12.11.41,2.24,2.24,2.24,2.15s-.12-1.35-.06-1.1c.27,1.09,2.66,2.11,2.82,1.96.33-.31-.94-3.06-2.12-3.31-.41-.09,1.18.05,1.69-.04,1.01-.17-3.59-.84-4.09-1.1-.41-.2,1.51.03,2.05-.06.36-.06-3.56-1.53-5.74-1.16-.78.13,2.44-.32,3.13-.71.36-.2-4.74-.78-6.22-.63-.3.03.81-.72,1.1-.77.58-.1,1.26.17,1.26.17,0,0-1.04-.94-1.4-1.16-.43-.26-1.7-.64-1.7-.64,0,0,.68-.57,1.47-.59.79-.03,1.39.61,1.39.61,0,0-.09-.69-.18-.92s-.57-.89-.57-.89c0,0,.76-.14,1.41.64.31.37.79,1.42.79,1.42,0,0,.18-.82.17-1.11s-.32-1.11-.32-1.11c0,0,1.25.72,2.19,1.63s1.48,2.19,1.5,2.14.07-.85.03-1.11c-.06-.39-.67-1.13-.56-1.37.09-.2,1.87,1.79,2.42,2.49.65.83,1.25,1.76,1.48,2.7.11.46.07-1.58-.11-2.05-.21-.53-1.54-1.61-1.46-1.77s1.59,1.11,1.59,1.02-1-1.84-1.5-2.27c-.52-.45-2.63-1.16-2.63-1.16,0,0,1.18-.32,1.58-.28.56.06.95.74,1.04.7.17-.06-.36-.97-.57-1.18-.24-.23-.95-.65-.88-.76.15-.24,1.46.39,2.12,1.15.32.36,1.05,1.61,1.05,1.61,0,0,.14-.61.09-1.2-.03-.3-.61-.98-.38-1.18.37-.33,1.71,2.06,2.3,2.74.73.84.91,2.45.91,2.45,0,0,.86-1.11,1.17-1.45.41-.44,1.23-1.46,1.79-1.67.3-.11-.85,1.33-.53,1.23.29-.09,1.21-1.1,1.65-1.43.44-.32,1.37-.62,1.77-.98.35-.32-.51,1.99-.23,1.68s.74-1.05,1.3-1.3,1.3-.32,1.3-.32c0,0-.56.72-.7.99-.09.17-.25.88-.19.86s.71-.65,1.73-.56c.34.03,1.31.55,1.31.55,0,0-.94.14-1.57.33-.25.08-1.07.35-1.06.44,0,.01.81.17,1.07.47.18.21.68,1.28.41,1.14-1.17-.6-1.67-1.04-3.2-.89-.6.06-3.31,1.6-3.01,1.6l2.07.2s-2.2.15-2.31.38c-.11.2,1.72-.04,2.34.08.2.04,1.21.29.97.36-.42.12-1.2.24-.97.39.33.2.81.54.61.53-.51-.02-.89-.15-1.23-.12-.39.03-.67.41-.67.41,0,0,.83.24.93.45.06.13-.88.15-1.21.28-.27.1-.92.62-.92.62,0,0,1.71.05,1.37.13-.46.11-1.17.32-1.5.55s1.24.23,1.59.11c.67-.22,1.76-1.05,2.26-1.51.34-.31-.86,1.03-.56,1.03.57,0,1.6-.3,2.1-.51s1.49-.8,1.99-1.05-1.47,1.71-1.05,1.52c.35-.16,1.54-.48,2.07-.47s1.82.26,2.24.59c.31.24-.97.08-1.26.21-.16.07-.8.6-.62.61.42.03,1.6-.32,2.66-.1.69.14,3.2,1.24,2.5,1.3-.57.05-2.08-.15-1.69.01.33.14.76.09,2.02,1.26.45.42,1.86,1.54,1.93,2.26.03.31-1.26-1.06-1.1-.76.11.2.51,1.3.54,1.76.05.63-.21,2.79-.21,2.79,0,0-.96-2.53-1.46-3.27-.33-.5-1.58-1.75-1.58-1.75,0,0,.23.57.27,1.03.04.48-.17.91-.17.91,0,0-.69-1.22-1.22-1.9s-1.68-1.81-1.68-1.81l.46,2.16s-1.46-1.7-2.08-2.12c-.44-.3-1.47-.65-1.84-.73-.21-.04.18,1.07.01.94-1.26-.93-3.09-.92-3.41-1.12-.25-.16.55,1.13.28,1.08-.58-.12-1.88-.36-2.48-.21-1.54.39-1.07,1.69-1.07,1.69h1.71s-.13-.9.09-.93c.32-.05.32.45.7.92.22.27-.09.76-.09.76,0,0,1.21,0,1.59-.13.23-.08.72-.5.96-.66.23-.15-1.2,1.43-.8,1.39.45-.05,1.7-.23,2.3-.17.69.07,2.61.61,2.68.79.11.29-.93.04-1.24.08-.52.06,1.01.59,1.71,1.15.38.3,1.48,1.26,1.48,1.26v.34s1,1.25,1.33,1.77c.3.48,1.14,1.75,1.2,2.19.03.24-1.58-1.06-1.39-.71.12.23,2.37,2.81,2.68,4.41.04.19-1.83-.94-1.52-.66.6.55,1.8,2.25,1.45,4.66-.1.65-.94-2.59-1.05-1.94-.1.58-1.38,2.69-1.28,2.09.14-.89-.2-2.41-.43-2.75-.19-.28-.53.83-.58.65-.26-.87.2-2.26.08-2.8-.1-.44-1.02,1.76-1.09,1.34-.13-.79.04-3.4-.12-3.4-.3,0-1,1.28-.91,1,.58-1.88-.76-3.89-1.56-4.53-.23-.18.03.62-.09,1.26-.08.47-1.58-2.59-2.3-3.28-.32-.3.75,2.04.49,1.69-.73-1-1.79-2.05-2.42-2.33-.32-.15.26,1.55,0,1.34-.52-.44-2.03-.42-1.97-.28.03.06,2.21,1.73,2.4,2.09.08.14-.9-.13-.78-.03.22.18,1.7,1.77,1.88,2.79.07.37-1.23-1.41-1.17-1.03.09.59.57,3.01-.14,4.3-.31.56.09-3.11-.47-2.19-.38.63-.36,1.84-1.03,2.45-.52.47.55-4.57.08-5.46-.17-.33-.49,1.83-.81,2.42-.24.45-.66-3.68-.88-4.43-.13-.46-.37,2.3-.47,1.84-.32-1.48-.25-1.8-.51-2.35-.71-1.52-1.52-1.65-1.52-1.65l-2.7.09Z"/><path class="cls-12" d="M59.44,107.71c-.14-.02-.56-1-.62-1.25-.06-.26-.05-.87-.04-1.35,0-.23.01-.48,0-.61-.14.21-.43.92-.51,1.23-.04.15-.06.48-.08.76-.04.54-.05.63-.11.66l-.03.02h-.03c-.33-.13-.3-2.99-.09-3.89.26-1.09,1.06-2.28,1.38-2.76-.09.08-.2.17-.3.26-.58.5-.69.58-.77.54-.01,0-.05-.03-.03-.09.14-.64.72-1.86,1.08-2.37.17-.25.55-.65.92-1.05.33-.35.73-.78.81-.92-.06.02-.21.14-.31.22-.09.07-.18.15-.28.22-.1.07-.21.16-.31.25-.24.2-.36.31-.46.28-.02,0-.06-.03-.07-.08-.03-.14.36-.8,1.26-2.23.14-.23.28-.44.37-.6.46-.76,1.47-1.74,2.07-2.33.18-.18.36-.35.44-.44-.11.02-.38.14-.78.39-.19.12-.36.28-.51.42-.21.19-.31.29-.42.28-.03,0-.06-.02-.08-.05-.11-.17,1.33-2.41,1.44-2.56.03-.05.08-.11.13-.19.2-.28.69-.97.77-1.2-.08.06-.23.21-.35.32-.37.36-.58.56-.7.46-.13-.11.06-.37.38-.79.11-.14.25-.32.28-.4-.23.04-1.26.67-1.66.98-.45.35-.88.79-1.19,1.11-.39.4-.49.48-.56.47-.05-.01-.08-.04-.1-.08-.07-.15.08-.48.32-.96.09-.19.22-.44.24-.53-.23.07-1.31.78-1.63,1.08-.25.24-.48.6-.66.9-.23.37-.35.57-.48.49-.12-.08-.02-.34.25-.98.1-.24.24-.56.26-.69-.21.16-.92,1.07-1.2,1.49-.1.16-.25.46-.4.75-.38.76-.51.98-.62.98,0,0,0,0-.01,0-.02,0-.05-.02-.06-.04-.06-.09-.02-.36.07-.91.03-.19.07-.41.08-.53-.24.25-1.02,1.5-1.34,2.07-.28.52-.35,1.37-.39,1.89-.02.29-.04.42-.07.48-.02.03-.05.05-.09.04-.15-.04-.37-.86-.38-1.3,0-.1,0-.26.02-.44.01-.25.04-.66,0-.78-.13.2-.33,1.63-.36,2.3,0,.23.02.65.05,1.05.07.99.08,1.26-.03,1.31-.02.01-.05.01-.08,0-.12-.06-.23-.41-.45-1.21-.11-.38-.25-.89-.33-1.03-.11.24-.36,1.37-.41,1.86-.03.24-.02.71-.02,1.17,0,1.04,0,1.11-.09,1.13-.09.02-.12-.09-.24-.5-.05-.19-.14-.5-.19-.58-.12.17-.42,1.18-.48,1.6-.04.28.03,1.12.05,1.4,0,.06,0,.1,0,.1,0,.11-.05.13-.08.14,0,0,0,0-.01,0-.24,0-.84-1.05-.92-1.29-.04-.12-.08-.35-.12-.57-.03-.18-.07-.44-.11-.53-.14.18-.36.76-.55,1.27-.32.88-.43,1.11-.54,1.11,0,0,0,0,0,0-.08,0-.09-.11-.1-.14-.16-.94.19-2.39.47-3.07.26-.63.71-1.22.97-1.47-.24.05-.75.22-.92.31-.09.05-.29.24-.45.4-.3.3-.35.34-.41.31-.03-.02-.04-.06-.02-.11.32-.94,1.02-2.11,1.58-2.88.27-.38.99-1.34,1.34-1.76-.15.08-.35.19-.51.28-.28.16-.54.3-.65.35-.1.04-.17.03-.2-.02-.19-.28,1.39-2.2,1.69-2.52.4-.41.93-.97,1.98-1.68-.15.02-.37.07-.55.11-.69.14-.75.14-.78.08l-.02-.04.04-.05c.43-.46,1.46-1.34,1.98-1.73.51-.39,1.16-.69,1.8-.86-.58.01-1.34.03-1.53-.01-.13-.03-.19-.08-.18-.16.04-.35,2.58-.94,3.13-.96.48,0,1.47.1,1.96.35-.08-.13-.2-.31-.31-.47-.49-.71-.52-.79-.46-.85.05-.05.11,0,.14.02.46.32,1.61.57,2.23.65.35.05,1.12.05,1.35.02-.02-.05-.06-.12-.12-.24-.16-.33-.41-.84-.58-1.03-.05-.05-.03-.09-.02-.11.05-.08.19-.04,1.14.32.47.18.96.37,1.22.42.4.09,1.07.12,1.72.14.46.02.89.04,1.18.08.01,0,.03,0,.04,0-.29-.31-2.7-1.56-3.42-1.7-.9-.18-2.23.01-2.88.1-.37.05-.39.05-.42.02l-.02-.03v-.03c.04-.09,1-.98,1.41-1.3,0,0,0,0,.01-.01-.22-.05-1.35.15-2.06.32-.58.14-1.14.48-1.6.76-.2.13-.38.23-.53.3-.02.01-.09.04-.13,0-.05-.07,0-.13.49-.65.17-.18.41-.43.5-.56-.12.02-.25.03-.39.04-.7.07-1.58.15-2.4.69-.68.45-1.24,1.08-1.69,1.59-.26.29-.48.54-.67.7-.07.06-.13.05-.16.03-.13-.09-.03-.59.41-1.98.03-.09.05-.16.07-.21-.27.19-1.25,1.34-1.63,1.85-.15.2-.36.52-.58.85-.26.39-.52.79-.7,1.01-.05.06-.1.09-.15.06-.22-.11.28-1.98.28-2,0,0,0-.01,0-.02-.27.15-1.44,1.51-1.75,2.01-.38.6-.72,1.58-1.05,2.52l-.15.41s-.06.15-.14.13c-.25-.06-.28-2.24-.23-2.66.03-.21.17-.63.3-1.04.1-.31.24-.72.27-.89-.21.17-1.07.75-1.23.63-.02-.02-.06-.06-.02-.14.28-.61,1.49-1.79,2.07-2.19.57-.39,1.61-.85,2.28-1.07-.36-.05-1.47-.06-1.95-.03-.05,0-.16,0-.18-.08-.04-.26,2.05-1.09,2.43-1.17.86-.19,1.64-.14,2.21-.11.25.02.47.03.64.02-.25-.15-1.33-.52-1.91-.59-.04,0-.16-.02-.15-.11.02-.25,2.15-.67,2.57-.67,0,0,0,0,.01,0,.45.01,1.25.18,1.85.43-.11-.17-.44-.57-.65-.82-.18-.21-.34-.4-.39-.48-.02-.04-.08-.12-.03-.18.07-.08.24,0,.92.35.47.25,1.05.56,1.44.66.14.04.32.08.52.13.41.1.91.22,1.31.36-.05-.06-.11-.12-.17-.18-.26-.29-.47-.52-.5-.66-.02-.07,0-.12.03-.14.1-.07.28.06.81.44.69.5,1.74,1.26,2.44,1.2,0,0,0,0,.02-.01.07-.09.06-.42-.02-.97-.02-.12-.02-.16.03-.17.05-.01.07.04.08.08.09.33,1.71,1.77,2.11,2.06,0-.06-.01-.15-.02-.23q-.07-.85,0-.86s0,0,.01,0c.05,0,.06.06.07.08.18.75,1.37,1.39,1.73,1.57.56.28.94.38,1,.35.04-.04.05-.19-.03-.5-.27-.96-1.23-2.53-2.07-2.71-.06-.01-.12-.03-.12-.09,0-.07,0-.07.55-.05.42.01,1,.03,1.26-.01.03,0,.05,0,.06-.01-.23-.13-1.39-.36-2.25-.53-.88-.18-1.72-.34-1.93-.45-.03-.01-.1-.05-.09-.12.02-.09.14-.1.95-.06.4.02.84.04,1.1.01-.51-.28-3.27-1.21-5.17-1.1-.25.04-.45.07-.55.07,0,0,0,0,0,0h0s-.05,0-.05,0l-.03-.02v-.04s.03-.04.18-.07c.1-.02.21-.03.32-.04.74-.12,2.23-.39,2.73-.64-.55-.21-4.78-.68-6.13-.55-.1,0-.11-.05-.12-.07-.03-.19,1-.78,1.2-.82.37-.06.76.01,1.02.08-.32-.29-.93-.81-1.18-.96-.41-.25-1.67-.63-1.68-.64l-.11-.03.09-.07s.7-.58,1.5-.61c.02,0,.03,0,.05,0,.58,0,1.04.33,1.26.51-.03-.22-.09-.59-.15-.73-.09-.22-.56-.87-.57-.87l-.06-.08.09-.02s.81-.13,1.47.67c.24.29.57.96.72,1.27.05-.26.14-.72.13-.91-.01-.26-.31-1.08-.31-1.09l-.06-.16.14.08s1.27.73,2.2,1.64c.71.69,1.2,1.59,1.4,1.97,0,0,.01.02.02.03.02-.25.04-.73,0-.92-.03-.16-.16-.4-.29-.63-.18-.33-.34-.61-.27-.77.01-.03.04-.04.07-.05,0,0,0,0,0,0,.3,0,2.12,2.11,2.45,2.52.74.94,1.21,1.76,1.43,2.51,0-.49-.05-1.5-.17-1.8-.11-.27-.55-.72-.9-1.08-.46-.47-.61-.63-.56-.73.01-.02.03-.04.06-.04.11-.02.41.18,1.08.67.13.1.28.21.38.28-.23-.43-.99-1.73-1.42-2.1-.51-.44-2.59-1.14-2.61-1.15l-.19-.06.19-.05s1.2-.33,1.6-.28c.39.04.7.37.89.56.05.05.1.1.13.13.01-.14-.38-.86-.6-1.07-.09-.08-.24-.2-.39-.31-.38-.28-.56-.42-.49-.53.03-.05.08-.07.16-.08.01,0,.02,0,.03,0,.42,0,1.47.58,2.03,1.22.26.3.78,1.15.98,1.49.04-.22.09-.63.06-1.02,0-.1-.1-.28-.2-.45-.17-.31-.34-.63-.17-.78.04-.04.09-.05.15-.04.31.04.82.75,1.5,1.76.29.42.55.82.74,1.03.62.7.85,1.92.91,2.34.23-.29.83-1.06,1.09-1.34.06-.07.14-.15.22-.25.44-.5,1.11-1.25,1.6-1.43.07-.02.1,0,.11.02.06.07,0,.2-.3.66-.11.17-.26.42-.31.53.19-.09.55-.44.87-.75.28-.27.54-.52.73-.65.2-.15.49-.29.8-.43.37-.17.75-.35.96-.55.05-.05.1-.06.14-.03.1.06.05.29-.16,1.05-.06.21-.12.45-.15.6.05-.06.1-.12.15-.19.28-.36.66-.85,1.11-1.05.56-.24,1.28-.32,1.31-.32h.14s-.09.1-.09.1c0,0-.56.72-.69.98-.07.13-.16.53-.19.72.23-.17.83-.58,1.68-.51.35.03,1.29.53,1.33.56l.16.09-.18.03s-.94.14-1.56.33c-.32.1-.78.26-.96.36.24.06.78.21.99.46.13.15.6,1.06.48,1.22-.01.02-.06.06-.14.02-.18-.09-.34-.18-.5-.26-.84-.45-1.39-.75-2.67-.62-.5.05-2.54,1.18-2.93,1.49l1.99.19v.12c-.99.07-2.06.21-2.24.33.13.03.59.02.96,0,.48-.02,1.03-.04,1.32.01.01,0,1.04.21,1.05.39,0,.02,0,.07-.08.09-.1.03-.23.06-.36.09-.2.05-.53.13-.6.18,0,0,0,0,0,0,.73.44.69.55.68.58,0,.02-.03.06-.1.06,0,0,0,0,0,0-.24-.01-.45-.04-.64-.07-.22-.03-.41-.06-.59-.05-.26.02-.48.21-.57.32.24.07.78.26.88.45.01.03.01.05,0,.08-.04.08-.2.11-.6.16-.23.03-.5.07-.64.12-.18.07-.57.36-.77.51,1.3.05,1.3.1,1.31.16,0,.06-.06.08-.09.09-.52.12-1.18.33-1.48.54,0,0,0,0,0,0,.16.1,1.24.1,1.54,0,.64-.21,1.69-1,2.24-1.5.05-.04.09-.09.14-.05.05.04.04.05-.16.31-.13.17-.47.62-.49.75.57,0,1.58-.3,2.07-.5.31-.13.79-.4,1.22-.63.29-.16.57-.31.77-.42.03-.02.11-.05.15,0,.06.08-.02.19-.6.85-.18.21-.42.49-.53.63.41-.16,1.49-.46,2.02-.44.54.02,1.84.26,2.28.61.06.05.08.09.06.14-.03.1-.21.11-.67.12-.26,0-.56,0-.67.06-.13.06-.51.37-.6.5h0c.14,0,.34-.03.57-.06.56-.08,1.33-.19,2.05-.04.47.09,2.69.97,2.67,1.3,0,.07-.06.11-.18.12-.25.02-.68,0-1.05-.03-.17,0-.34-.02-.48-.02.01,0,.03,0,.05.01.32.1.81.24,1.85,1.21.07.06.16.15.27.24.61.53,1.62,1.43,1.69,2.06,0,.07-.03.09-.05.1-.1.05-.27-.09-.78-.54-.07-.06-.14-.13-.21-.18.16.38.45,1.23.48,1.63.05.63-.2,2.71-.21,2.8l-.03.24-.09-.23s-.97-2.53-1.46-3.26c-.25-.37-1.01-1.17-1.38-1.54.07.21.16.52.18.79.04.49-.17.92-.18.94l-.05.1-.06-.1s-.69-1.23-1.22-1.89c-.42-.53-1.21-1.33-1.53-1.66l.47,2.19-.15-.18s-1.47-1.7-2.07-2.11c-.42-.28-1.41-.63-1.8-.72-.02.07.03.34.06.49.06.3.08.41.01.45-.01,0-.05.02-.1-.01-.85-.63-1.96-.82-2.7-.94-.29-.05-.51-.09-.64-.14.03.08.09.22.14.32.19.42.27.62.2.7-.01.02-.05.04-.11.03-.42-.09-1.83-.36-2.45-.21-.47.12-.8.34-.96.65-.2.38-.11.79-.08.92h1.6c-.04-.31-.08-.89.15-.93.24-.04.33.17.44.41.08.16.16.35.31.53.18.23.05.57-.03.74.3,0,1.17-.02,1.47-.12.15-.05.42-.26.65-.43.11-.09.22-.17.3-.22.06-.04.09-.02.1,0,.05.05.02.08-.25.43-.2.26-.66.85-.63.96.1-.02.23-.04.38-.05.58-.07,1.46-.18,1.93-.13.64.07,2.64.6,2.73.83.03.07,0,.11-.01.14-.09.11-.36.09-.81.05-.19-.02-.37-.04-.47-.03-.02,0-.03,0-.04,0,.08.07.38.23.62.35.38.19.85.44,1.16.68.38.3,1.47,1.25,1.48,1.26l.02.02v.34c.12.15,1.02,1.27,1.32,1.76l.11.17c.37.57,1.05,1.64,1.1,2.04,0,.05-.02.08-.04.09-.08.05-.25-.04-.82-.43-.16-.11-.36-.24-.49-.31.05.07.13.17.22.28.65.83,2.17,2.76,2.42,4.07,0,.03,0,.06-.03.08-.07.05-.24-.02-1.03-.43-.1-.06-.21-.11-.31-.16.7.75,1.61,2.38,1.29,4.54,0,.04-.02.13-.1.14-.11,0-.21-.21-.53-1.07-.14-.38-.33-.9-.42-1.02,0,0,0,0,0,.01-.08.43-1.06,2.24-1.33,2.24,0,0,0,0,0,0-.06-.01-.08-.07-.07-.18.14-.88-.21-2.39-.42-2.7,0-.01-.02-.02-.02-.02h0c-.07,0-.22.29-.29.43-.1.2-.14.29-.22.28-.02,0-.05-.01-.07-.06-.16-.52-.06-1.2.02-1.81.06-.42.11-.78.06-1,0,0,0,0,0,0-.09.07-.31.45-.46.71-.3.53-.42.72-.53.72,0,0-.01,0-.02,0-.03,0-.07-.03-.08-.1-.07-.39-.06-1.21-.05-1.93,0-.6.01-1.27-.03-1.41-.17.05-.51.55-.67.78-.17.25-.19.28-.25.25-.05-.03-.03-.09-.03-.11.57-1.83-.72-3.81-1.54-4.46,0,.06,0,.2.01.32.02.25.05.6,0,.91-.01.07-.06.09-.08.1-.14.03-.34-.27-1-1.38-.43-.73-.92-1.55-1.26-1.91.05.2.22.62.33.92.27.7.27.72.21.75-.06.03-.1-.03-.12-.05-.77-1.05-1.8-2.05-2.4-2.31-.05.05.03.49.08.72.09.44.11.59.03.63-.02.01-.06.02-.12-.02-.45-.37-1.6-.39-1.85-.32.08.06.28.23.49.4.88.71,1.75,1.42,1.88,1.66.02.03.02.06,0,.09-.05.06-.16.05-.54-.01-.05,0-.1-.02-.15-.02.41.41,1.64,1.79,1.8,2.73.01.07-.02.1-.04.12-.08.04-.18-.05-.63-.57-.16-.18-.38-.43-.49-.52,0,.05.02.1.02.15.13.81.48,2.95-.18,4.13-.01.03-.06.11-.13.09-.11-.03-.12-.23-.12-1.03,0-.46,0-1.31-.12-1.36,0,0-.03,0-.1.12-.14.24-.23.57-.32.92-.14.54-.3,1.16-.72,1.54-.07.06-.12.05-.15.03-.16-.08-.12-.65.05-2.13.14-1.29.32-2.89.09-3.37-.08.12-.19.61-.29,1-.13.53-.27,1.13-.42,1.4-.04.07-.08.07-.11.06-.16-.03-.28-.66-.58-2.67-.11-.74-.21-1.43-.29-1.76-.05.19-.11.6-.16.91-.13.88-.16.94-.24.95h0c-.06,0-.08-.07-.08-.1-.13-.61-.2-1.03-.24-1.33-.07-.46-.11-.69-.26-1-.69-1.46-1.47-1.62-1.48-1.62l-2.68.09-.57.25c-.08.18-.62,1.45-.7,1.81-.15.64-.2,2.33-.2,2.35v.35s-.12-.33-.12-.33c-.14-.43-.31-.89-.41-1.1,0,.44-.28,1.04-.51,1.58-.14.31-.26.59-.31.79-.15.57-.26,2.37-.26,2.39v.17s-.11-.14-.11-.14c-.02-.03-.54-.78-.63-1.1-.06-.23-.06-.48-.05-.73,0-.14,0-.27,0-.39,0-.08-.01-.13-.02-.15-.18.24-.59,1.98-.71,2.81-.07.51-.12,2.5-.12,2.52v.15s-.1-.11-.1-.11c-.02-.03-.58-.65-.7-.92-.14-.3-.17-.61-.19-.88-.01-.17-.03-.32-.07-.44-.13.23-.42,1.21-.4,2.33,0,.49.19,2.51.19,2.53l.02.21-.13-.16s-.49-.64-.63-.89c-.11-.2-.13-.43-.15-.63-.02-.2-.04-.37-.13-.41-.21.04-.81,2.21-.91,3.16-.04.35-.05.87-.07,1.38-.03,1.08-.05,1.4-.13,1.47l-.02.02h-.04ZM58.82,104.32s.02,0,.03,0c.06.03.07.11.05.78-.01.48-.03,1.08.03,1.32.07.29.38.94.5,1.12.04-.19.06-.82.08-1.33.02-.51.03-1.04.07-1.39.08-.75.63-3.04.96-3.24.05-.03.09-.02.11-.01.16.07.18.27.2.51.02.19.04.41.14.59.09.17.34.51.49.71-.05-.53-.16-1.92-.17-2.33-.02-1.22.34-2.45.52-2.49.03,0,.07,0,.09.05.07.15.08.34.1.54.02.26.05.56.18.84.08.18.42.58.58.77.01-.48.06-1.94.12-2.38.03-.23.53-2.93.84-2.93h0c.09,0,.12.12.13.29,0,.13,0,.27,0,.41,0,.24,0,.49.05.7.06.22.36.68.52.92.03-.47.13-1.76.25-2.24.05-.21.18-.5.32-.81.24-.55.52-1.17.5-1.58,0-.05,0-.16.07-.17.05,0,.13-.03.47.97.02-.53.08-1.56.19-2.04.09-.4.69-1.79.72-1.85v-.02s.66-.28.66-.28l2.7-.09s.86.16,1.58,1.69c.16.33.2.58.27,1.03.05.28.11.66.22,1.2.04-.17.08-.46.12-.71.14-.94.18-1.09.28-1.1,0,0,0,0,0,0,.06,0,.08.07.09.09.08.28.19,1.04.31,1.85.14.99.34,2.32.47,2.55.14-.28.28-.85.4-1.35.21-.87.29-1.1.4-1.12.03,0,.07,0,.1.07.25.48.08,2.06-.07,3.46-.09.84-.2,1.87-.11,2,0,0,0,0,.02-.01.4-.36.55-.93.69-1.48.09-.36.18-.7.33-.95.05-.09.13-.21.24-.18.18.05.2.51.2,1.48,0,.33,0,.73.03.87.63-1.15.29-3.25.16-4.04-.01-.08-.02-.15-.03-.2-.01-.07.02-.1.05-.11.09-.04.21.08.66.59.15.17.34.39.45.49-.23-1-1.62-2.5-1.85-2.69-.04-.04-.03-.08-.03-.09.03-.06.1-.05.37,0,.12.02.29.05.38.05-.22-.29-1.21-1.08-1.82-1.57-.51-.41-.55-.44-.56-.47-.01-.03,0-.07.03-.1.18-.13,1.49-.1,2,.29,0-.1-.04-.31-.08-.47-.1-.51-.14-.76-.04-.84.02-.02.06-.04.13,0,.57.26,1.53,1.16,2.29,2.15-.04-.12-.1-.25-.15-.38-.38-.97-.4-1.09-.32-1.14.04-.02.08-.01.13.03.35.34.88,1.22,1.34,1.99.32.54.72,1.2.86,1.31.05-.3.02-.62,0-.86-.02-.27-.03-.41.05-.45.04-.02.08-.01.13.03.81.64,2.06,2.53,1.65,4.35.3-.44.58-.83.79-.83h0c.12,0,.14.2.13,1.54,0,.71-.01,1.52.05,1.9.09-.08.27-.4.41-.65.33-.57.47-.81.6-.78.03,0,.07.03.09.1.05.24,0,.61-.06,1.04-.08.56-.16,1.19-.04,1.68.03-.05.06-.11.08-.16.14-.29.25-.49.39-.5.03,0,.08,0,.13.07.23.33.59,1.87.44,2.79,0,0,0,0,0,.01.24-.23,1.08-1.63,1.17-2.12,0-.03.02-.13.1-.14,0,0,0,0,0,0,.12,0,.23.25.55,1.12.13.36.3.83.39.96,0,0,0,0,0,0,.33-2.29-.74-3.97-1.43-4.6-.02-.02-.08-.07-.04-.12.04-.06.06-.06.66.26.28.15.71.38.87.43-.28-1.28-1.75-3.15-2.38-3.96-.17-.22-.26-.33-.28-.38-.03-.06-.03-.1,0-.13.07-.06.16-.01.71.36.22.15.53.36.66.41-.1-.41-.75-1.44-1.07-1.94l-.11-.17c-.32-.51-1.32-1.75-1.33-1.77v-.02s-.01-.33-.01-.33c-.15-.13-1.11-.96-1.46-1.24-.3-.24-.76-.47-1.14-.67-.54-.27-.72-.38-.7-.49.01-.08.12-.09.16-.1.11-.01.3,0,.5.03.24.03.65.07.7,0,0,0,0-.02,0-.02-.09-.14-1.87-.68-2.63-.75-.46-.05-1.33.06-1.9.13-.15.02-.29.03-.38.04-.07,0-.11-.03-.12-.05-.07-.13.14-.44.64-1.09.02-.03.04-.05.06-.08-.02.01-.03.03-.05.04-.24.18-.52.39-.68.45-.38.13-1.56.13-1.61.13h-.11s.06-.09.06-.09c0,0,.28-.46.09-.69-.16-.19-.25-.39-.33-.55-.12-.25-.18-.37-.32-.34-.08.01-.1.43-.04.86v.07s-1.81,0-1.81,0v-.04s-.21-.56.06-1.06c.18-.34.53-.58,1.04-.71.62-.16,1.94.09,2.49.2,0-.09-.14-.4-.22-.56-.16-.35-.2-.45-.14-.51.02-.02.06-.03.11,0,.09.06.34.1.66.15.73.13,1.83.31,2.7.93,0-.07-.03-.19-.05-.28-.07-.36-.1-.54-.03-.61.02-.02.06-.03.09-.03.39.08,1.42.44,1.86.74.51.34,1.55,1.51,1.94,1.95l-.45-2.13.14.14s1.14,1.13,1.68,1.81c.44.55.99,1.49,1.17,1.8.06-.15.15-.45.12-.77-.03-.44-.26-1.01-.26-1.01l-.11-.28.21.21c.05.05,1.25,1.26,1.58,1.76.42.62,1.13,2.42,1.38,3.06.07-.58.22-2.04.18-2.53-.04-.45-.43-1.55-.54-1.74-.01-.02-.04-.08,0-.12.06-.05.1-.01.46.31.18.16.5.45.62.51-.1-.6-1.1-1.47-1.64-1.95-.11-.09-.2-.18-.27-.24-1.02-.95-1.49-1.09-1.8-1.18-.07-.02-.14-.04-.2-.07-.04-.02-.11-.05-.1-.11.02-.08.09-.08.77-.04.37.02.79.05,1.03.03.04,0,.06,0,.06-.01-.1-.21-1.9-1.03-2.57-1.17-.7-.14-1.46-.03-2.01.04-.28.04-.5.07-.65.06-.05,0-.08-.04-.09-.07-.03-.16.58-.61.68-.66.13-.06.43-.06.72-.07.19,0,.46,0,.54-.04,0,0,0,0,0,0-.41-.33-1.68-.56-2.2-.58-.01,0-.02,0-.04,0-.52,0-1.65.31-2,.46-.02,0-.09.04-.13-.01-.06-.07.02-.18.59-.84.18-.21.42-.49.53-.64-.19.1-.44.24-.7.38-.45.25-.91.51-1.23.64-.5.21-1.55.51-2.13.51h0c-.06,0-.09-.04-.1-.05-.05-.1.08-.32.38-.72-.58.48-1.42,1.07-1.96,1.25-.26.09-1.59.14-1.7-.07-.01-.02-.03-.09.06-.15.28-.2.84-.39,1.33-.51-.27-.03-.73-.05-1.17-.06h-.16s.13-.11.13-.11c.03-.02.66-.53.93-.63.15-.06.41-.09.66-.13.18-.03.42-.06.5-.09-.11-.13-.58-.3-.87-.39l-.08-.02.05-.07s.3-.4.72-.43c.19-.01.39.02.61.05.17.03.36.06.57.07-.09-.09-.31-.25-.59-.42-.07-.04-.08-.09-.07-.12.02-.11.22-.17.7-.29.1-.03.21-.05.3-.07-.18-.08-.7-.22-.91-.26-.28-.05-.82-.03-1.29,0-.76.03-1.03.03-1.09-.06-.02-.03-.02-.06,0-.09.09-.17,1-.29,1.7-.36l-1.41-.14h0c-.06,0-.07-.04-.08-.07-.01-.21,2.59-1.6,3.09-1.65,1.32-.13,1.89.17,2.74.63.15.08.31.17.49.26,0-.17-.32-.87-.47-1.05-.2-.23-.77-.38-.96-.43-.09-.02-.11-.03-.12-.07-.02-.11.36-.28,1.1-.51.46-.14,1.09-.26,1.4-.31-.29-.15-.88-.44-1.12-.46-.85-.07-1.44.37-1.63.51-.04.03-.06.04-.08.05h-.04s-.03-.02-.03-.02c-.08-.09.13-.82.19-.93.11-.21.45-.67.62-.89-.24.04-.74.12-1.14.29-.42.18-.79.66-1.06,1.01-.08.11-.15.2-.22.27-.04.05-.08.06-.12.04-.08-.04-.06-.14.13-.82.08-.3.2-.73.2-.88-.23.2-.61.38-.98.56-.3.14-.59.28-.78.42-.18.13-.45.39-.72.64-.4.38-.77.73-.95.79-.07.02-.1,0-.12-.02-.06-.08.02-.22.32-.7.1-.16.24-.37.28-.48-.47.21-1.09.91-1.5,1.38-.08.09-.16.18-.22.25-.3.33-1.16,1.43-1.17,1.45l-.09.12-.02-.15s-.18-1.61-.9-2.42c-.19-.22-.46-.62-.75-1.04-.51-.74-1.14-1.67-1.41-1.71-.02,0-.04,0-.05.02-.1.09.06.39.19.64.1.19.2.37.21.5.05.59-.08,1.19-.09,1.22l-.03.15-.08-.13s-.74-1.25-1.04-1.61c-.57-.65-1.58-1.18-1.94-1.18,0,0-.02,0-.02,0-.03,0-.05,0-.06.02.03.07.28.25.45.38.15.11.32.23.41.32.2.19.66.98.62,1.2-.01.06-.05.08-.07.08-.07.03-.13-.04-.26-.17-.18-.19-.46-.49-.81-.53-.29-.03-1.01.14-1.36.23.53.19,2.03.73,2.46,1.1.49.42,1.52,2.19,1.52,2.32v.04l-.04.02c-.05.03-.08.01-.6-.37-.3-.22-.78-.58-.95-.64.06.1.31.35.52.57.38.39.81.83.93,1.12.15.38.23,2.07.14,2.17l-.02.03h-.04s-.06-.06-.07-.12c-.19-.78-.67-1.66-1.46-2.67-.61-.77-2.05-2.34-2.32-2.47-.01.13.14.41.27.64.13.24.27.49.3.67.04.26,0,1.06-.03,1.13v.04s-.05,0-.05,0c-.05,0-.05,0-.17-.21-.2-.38-.68-1.26-1.38-1.94-.74-.72-1.68-1.32-2.03-1.53.09.26.26.76.26.97.01.29-.16,1.09-.17,1.12l-.04.18-.08-.16s-.48-1.05-.78-1.41c-.49-.59-1.04-.64-1.26-.63.13.19.44.63.52.81.09.23.18.9.18.93l.02.18-.13-.13s-.57-.59-1.3-.59c-.01,0-.03,0-.04,0-.6.02-1.13.36-1.34.51.32.1,1.24.4,1.6.61.36.22,1.37,1.13,1.41,1.17l.25.22-.31-.12s-.67-.26-1.23-.17c-.23.04-.88.47-1.06.64,1.36-.1,6.14.34,6.24.65,0,.03,0,.07-.04.1-.29.17-1.23.39-2.04.55.94.05,1.93.26,2.54.42.86.22,2.13.64,2.16.82,0,.03-.01.08-.07.09-.25.04-.77.02-1.23,0-.26-.01-.57-.02-.73-.02.28.1,1.07.26,1.83.41,1.96.39,2.38.51,2.38.65,0,.08-.09.1-.2.12-.28.05-.86.03-1.29.02-.05,0-.09,0-.14,0,.87.42,1.67,1.92,1.89,2.71.09.32.09.53,0,.62-.03.03-.11.06-.37-.02-.59-.18-1.98-.87-2.43-1.68.01.15.03.32.04.45.02.2.03.32.03.35v.05h-.05s0,.01,0,.01c-.13,0-1.11-.9-1.15-.93-.3-.27-.76-.71-1-1.01.05.37.07.73-.03.86-.03.03-.06.05-.1.06-.75.07-1.81-.71-2.52-1.22-.26-.19-.56-.4-.66-.43,0,0,0,0,0,0,.03.12.29.4.47.6.26.28.31.35.27.41-.02.03-.06.04-.11.02-.41-.16-.97-.3-1.42-.41-.2-.05-.38-.09-.52-.13-.41-.11-.99-.42-1.47-.67-.29-.15-.62-.33-.74-.36,0,0,0,.01.01.02.05.08.21.27.38.47.68.8.76.94.7,1.01-.04.05-.11.02-.14.01-.58-.26-1.41-.43-1.85-.45,0,0-.02,0-.03,0-.54,0-2.09.37-2.39.54,0,0,0,0,0,0,.49.06,2.07.52,2.06.74,0,.08-.11.09-.15.09-.18.01-.41,0-.67-.02-.57-.03-1.34-.08-2.18.1-.52.11-2.05.79-2.31,1.02,0,0,.01,0,.02,0,.02,0,2.13-.08,2.16.13.01.07-.08.1-.12.12-.66.21-1.75.7-2.31,1.08-.57.38-1.74,1.53-2.02,2.13.19-.03.87-.45,1.08-.64.05-.05.1-.06.14-.04.09.06.05.22-.23,1.07-.13.4-.27.82-.3,1.02-.07.6.01,2.21.13,2.5,0,0,0-.02,0-.02l.15-.41c.33-.95.68-1.93,1.06-2.54.2-.32,1.67-2.18,1.93-2.08.08.04.05.14.04.18-.14.47-.36,1.56-.34,1.82.17-.22.43-.61.68-.99.22-.33.43-.65.58-.85.02-.02,1.58-2.04,1.82-1.92.07.04.04.13.03.16-.02.05-.04.13-.07.22-.13.41-.51,1.63-.46,1.83,0,0,0,0,.01-.01.18-.15.4-.4.66-.68.46-.51,1.02-1.15,1.71-1.61.85-.56,1.74-.64,2.46-.71.17-.02.32-.03.47-.05.06-.01.08.03.08.04.04.08-.04.18-.56.73-.12.13-.27.29-.37.4.11-.06.24-.14.38-.23.46-.28,1.03-.63,1.63-.78.02,0,2.1-.5,2.22-.25.02.05,0,.1-.07.16-.4.31-1.05.92-1.28,1.16.06,0,.14-.02.22-.03.65-.09,2-.28,2.92-.1.63.12,3.59,1.55,3.54,1.86-.02.1-.15.08-.2.07-.29-.04-.71-.06-1.17-.07-.65-.03-1.33-.05-1.74-.15-.26-.06-.76-.25-1.23-.43-.34-.13-.74-.28-.92-.33.18.24.39.68.54.98.06.13.13.27.15.29l.03.03-.02.04c-.06.12-1.34.05-1.51.03-.59-.08-1.68-.31-2.2-.62.09.15.27.42.4.61.42.62.44.66.39.72-.04.04-.1,0-.12-.01-.35-.25-1.36-.4-1.94-.4-.02,0-.05,0-.07,0-.73.02-2.93.64-3.01.85h0s.03.01.09.03c.19.04,1.02.02,1.57.01.68-.02.68-.02.68.05,0,.06-.05.07-.15.08-.78.09-1.67.45-2.31.94-.47.36-1.42,1.16-1.89,1.63.14-.02.38-.07.57-.11.72-.15.78-.15.81-.08.02.04,0,.07-.05.11-1.12.74-1.68,1.32-2.09,1.75-.49.51-1.72,2.14-1.67,2.36,0,0,.02,0,.06-.02.1-.04.37-.19.63-.34.75-.42.78-.43.82-.37.04.05-.01.1-.04.13-.24.24-1.09,1.37-1.46,1.89-.52.73-1.19,1.82-1.52,2.72.06-.06.13-.13.2-.19.18-.18.37-.37.48-.42.05-.02,1.09-.44,1.18-.3.02.03.02.07-.04.12-.21.17-.73.81-1.01,1.5-.28.67-.62,2.09-.46,3.01,0,0,0,.01,0,.02.09-.13.28-.63.42-1.01.22-.59.44-1.21.61-1.35.02-.02.05-.03.08-.02.08.03.12.19.19.65.04.21.07.44.11.55.12.33.63,1.11.79,1.2,0,0,0,0,0-.01,0,0,0-.04,0-.09-.04-.49-.09-1.16-.05-1.43.03-.22.39-1.7.6-1.72h0c.11,0,.17.19.31.69.03.09.06.21.08.29.01-.2,0-.57,0-.89,0-.46,0-.94.02-1.18.02-.18.32-1.99.52-1.99h0c.12,0,.2.23.46,1.14.11.4.28.99.37,1.12.03-.13-.02-.73-.05-1.17-.03-.4-.06-.82-.05-1.06,0-.19.19-2.41.49-2.44.03,0,.05,0,.07.03.08.08.07.35.04.9,0,.17-.02.33-.02.43,0,.4.17.94.26,1.13.01-.08.02-.22.03-.35.04-.52.11-1.4.41-1.93.01-.02,1.23-2.17,1.5-2.17,0,0,.01,0,.02,0,.08.03.07.15-.03.7-.05.26-.12.67-.1.79.09-.09.33-.57.49-.9.16-.31.3-.6.41-.76.2-.31,1.11-1.53,1.32-1.57.02,0,.05,0,.06.01.1.07.02.28-.23.86-.11.27-.3.7-.29.82.07-.05.2-.26.31-.44.19-.3.42-.67.68-.92.21-.2,1.63-1.22,1.79-1.1.09.07,0,.25-.21.7-.15.3-.37.75-.32.86,0,0,0,0,.02.01.04-.02.25-.23.45-.43.32-.32.75-.76,1.2-1.12.28-.22,1.54-1.06,1.79-1,.03,0,.05.02.06.05.04.08-.04.2-.3.55-.15.19-.42.55-.39.63h0c.07,0,.37-.3.53-.46.32-.31.45-.44.53-.36.09.08,0,.29-.77,1.39-.05.08-.1.14-.13.19-.47.68-1.36,2.18-1.43,2.43.06-.02.2-.15.31-.25.15-.14.33-.31.53-.43.17-.11.76-.46.93-.4.03.01.05.03.06.06.02.06,0,.08-.5.57-.6.59-1.59,1.57-2.05,2.31-.1.16-.23.37-.38.6-.46.73-1.22,1.94-1.24,2.13.06-.02.22-.16.33-.25.11-.09.22-.19.32-.26.09-.07.19-.14.27-.22.23-.19.39-.32.49-.22.09.09-.03.24-.83,1.09-.37.39-.75.79-.91,1.03-.34.48-.87,1.61-1.04,2.25.13-.09.4-.32.59-.49.49-.43.54-.46.6-.41.02.02.04.05,0,.11-.01.02-.04.07-.11.17-.31.45-1.12,1.66-1.38,2.75-.22.92-.2,3.24-.03,3.68.02-.12.03-.32.05-.5.02-.3.05-.62.09-.78.06-.26.45-1.29.62-1.37.01,0,.02,0,.04,0ZM84.72,103.13h0ZM72.76,91.85h0ZM57.93,85.07h0ZM84.92,84.18h0ZM67.61,81.14h0ZM75.35,79.58h0ZM73.23,78.18h0,0Z"/><path class="cls-21" d="M48.93,137.48c-.39-.31-1.01-1.58-1.42-1.4s-.64.35-1.4.18-1.11-.29-1.93-.23-1.75.29-2.57.35-1.28-.18-2.04-.12c-.76.06-1.58.23-2.22.35s-1.17.23-.93.64.35,0,.64.47.58,1.34,1.28,1.75,1.11,1.05,1.93,1.11,1.46-.12,2.34,0c.88.12,1.4-.29,1.98.12s.53.53,1.46.53,1.11-.12,2.28,0c1.17.12,1.05-.06,2.16-.12,1.11-.06,1.4,0,2.39,0s2.28,0,2.63.06.35.47-.35.58-.06-.58-1.17-.06-1.17.99-1.93.99-2.22.23-3.04.29-1.34.06-2.39.12-2.22.12-2.98.12h-1.75c-1.17,0-1.81-.12-2.51.06-.7.18-.53.12-1.4.06s-1.46.12-1.69.64-.41,1.05.06,1.34.53.47,1.17.58.93.29,1.93.41c.99.12,2.69-.12,3.21-.06s2.74.23,2.74.23c0,0,0,.53-.76.76-.76.23-1.75.41-.88.58.88.18,1.46.18,1.46.18,0,0,.47,1.34.93,1.69.47.35.7.88.7.88,0,0-.41-.06-.47.53s.06.88-.64,1.05-.93.76-.93,1.23-.99.06.88.64c1.87.58,1.34.12,2.45.35s3.09.06,3.09.06c0,0,.99-.23,2.34,0s1.05,1.05,1.69,1.23.76.18,1.58.18.93,0,1.4.41.99,1.4,1.52,1.46.47,0,1.52,0,2.45.29,2.74.53.06.64-.29.82-.53.06-1.28.23-1.17.53-1.28.88-.18.58-1.17.58-1.4.12-1.52.76-.53,1.05-.41,1.4-.06.29.88.23c.93-.06.29-.47,1.75-.18s1.17-.06,2.28.18,1.87,0,2.69-.12,2.45-.12,3.33-.12,2.28-.06,3.27,0,1.75.29,2.51.35.35-.12,1.93-.06c1.58.06,1.93-.12,2.86-.35.93-.23.53-.47,1.81-.64s2.45-.18,2.63-.58.47-.23-.64-.7-1.69,0-1.81-.64.18-.82.47-.99,1.17-.88.64-1.17-1.05-.18-1.11-.53c-.06-.35.23-.12.64-.58s.53-1.34.58-1.58.18-.12.53-.58-.06-.47.99-.53.82.18,1.63,0c.82-.18,1.34-.12,2.16-.12s1.81-.12,2.45-.18,1.46.35,1.81-.12.58-.7.41-1.4-.06-.93-.53-1.23-.58-.12-1.4-.23c-.82-.12-1.46,0-2.22-.29s-1.05.47-1.23-.23-.06-.82-.53-1.28-.64-.41-.41-.88,0-1.23,0-1.23c0,0-.12-.06.82-.12.93-.06.88.06,1.58-.06s2.22.18,2.8-.06,2.51-.12,2.92-.29.93-.41.58-.88c-.35-.47.06-.76.76-1.11s.99-.58,1.63-.76c.64-.18.82.18,1.11-.12s.76-1.23,1.23-1.4,1.11-.35.47-.64-.93-.53-.7-.76.18-.29.12-.76.29-.47-.82-.82-1.75-.47-2.69-.58c-.46-.06-9.6.35-9.6.35,0,0-.48.35-.69.63-1.35,1.71-5.65,1.3-6.42,2.07-.43.43-.4,3.53-.4,3.53,0,0-13.55.04-13.79-.1-4.59-2.64-3.89-7.34-3.89-7.34,0,0,10.83.1,13.18-.25,2.4-.36-6.91-1.14-9.71-.63-2.7.49-9.33,2.04-10.86,2.09-1.38.05-3.36-.2-5.15-1.63Z"/><rect class="cls-7" x="174.65" y="173.77" width="17.67" height="17.67"/><rect class="cls-7" x="206.69" y="173.77" width="17.67" height="17.67"/><rect class="cls-7" x="239.48" y="173.77" width="17.67" height="17.67"/><rect class="cls-7" x="271.07" y="173.77" width="17.67" height="17.67"/><path class="cls-2" d="M130.57,123.02s1.8-3.08,2.76-4.12c.69-.75,2.09-2.22,2.56-1.88.28.2-.34,2.21-.92,5.04-.72,3.52-1.48,9.2-2.2,11.92-1.32,5.01-4.12,8.56-4.12,8.56l1.92-19.53Z"/><path class="cls-24" d="M135.53,117.3s-2.1,5.46-2.73,7.3c-.57,1.68-2.02,5.92-2.02,5.92l-1.29,10.31s.82-1.1,1.14-1.7c.74-1.37,1.67-4.4,2.02-5.92.73-3.16,1.54-8.98,2.08-11.63.29-1.44.79-4.29.79-4.29Z"/><path class="cls-2" d="M130.73,120.74s5.84-6.82,6.09-15.9c.14-4.91-.82-13.3-1.42-13.56-.67-.29-2.17,5.04-3.37,8.73-1.15,3.56-1.21,10.32-.96,14.06.11,1.6-.34,6.66-.34,6.66Z"/><path class="cls-24" d="M135.32,92.84s-.63,8.27-1,10.88c-.36,2.56-1.9,9.62-1.9,9.62,0,0,1.21-2.13,1.7-1.77.35.26-2.42,7.86-2.42,7.86,0,0,4.53-6.86,4.8-14.23.29-7.87-1.19-12.36-1.19-12.36Z"/><path class="cls-2" d="M133.97,111.78c.25.18-2.37,5.92-2.74,9.48-.36,3.43-.51,7.23-.9,10.71-1.07,9.55-2.45,16.38-2.45,16.38l-.69-4.36s.6-1.93.58-2.58c-.11-3.17-3.82-8.65-2.78-14.39.9-4.95,8.79-15.39,8.98-15.25Z"/><polygon class="cls-24" points="132.42 114.2 126.29 135.33 128.06 141.24 127.34 143.62 127.84 143.75 126.16 148.82 127.97 147.14 129.75 134.64 131.16 120.11 133.18 113.29 132.42 114.2"/><path class="cls-2" d="M130.54,151.13s.7-5.96.52-6.17c-.29-.36-5.74,4.52-5.74,4.52l-2.26,6.61,7.48-4.96Z"/><polygon class="cls-24" points="130.72 145.65 125.72 151.96 125.37 153 130.46 149.39 130.72 145.65"/><path class="cls-2" d="M123.02,148.18s-.09-.17-.24-.44c-.41-.73-1.22-2.18-1.63-2.69-.56-.7-2.13-2.55-2.57-2.43-.52.13-2.43,6.87-2.52,9.35-.22,5.65,1.87,11.13,1.87,11.13l5.09-14.91Z"/><path class="cls-24" d="M121.03,149.37c-.61.88-1.66,3.24-1.66,3.24l-.55-9.65s.92.7,1.99,2.09c.43.56,1.63,2.28,1.56,2.5-.06.2-.89,1.15-1.35,1.82Z"/><path class="cls-2" d="M110.9,170.28s1.84-1.58,2.32-2.17c1.53-1.84,3.38-5.92,4.06-8.22.74-2.51,2.2-7.19,3.29-9.27.66-1.26,2.43-3.47,3.42-4.49.79-.81,3.29-2.74,3.84-2.37.3.2-3.69,9.76-3.17,9.96.27.1,8.4-6.26,8.69-5.95.37.4-4.12,8.82-5.85,11.59-2.91,4.68-11.11,10.61-11.11,10.61l-5.5,3.46v-3.14Z"/><path class="cls-24" d="M132.73,148.73s-3.99,3.36-6.33,6.21c-2.31,2.81-6.88,9.39-6.88,9.39,0,0,5.34-9.76,4.95-10.36-.42-.64.84-3.64,1.22-4.66.48-1.27,1.72-4.68,1.72-4.68,0,0-3.25,3.1-5.08,6.86-1.58,3.24-5.23,12.02-8.1,16.41-.69,1.05-3,3.98-3,3.98,0,0,3.26-1.01,4.21-1.6,4.48-2.81,9.62-8.11,10.63-9.35,1.34-1.65,3.23-4.99,4.47-7.46,1.59-3.16,2.19-4.74,2.19-4.74Z"/><path class="cls-2" d="M108.6,171.35s-.1-3.25-.28-4.31c-.15-.87-.52-3.14-.73-3.26-.24-.15-5.44,6.73-7.21,10.31-2.91,5.88-1.57,9.67-1.57,9.67l9.79-12.41Z"/><path class="cls-2" d="M109.92,172.72s11.67-4.71,11.88-4.23c.17.39-2.69,5.89-4.89,7.95-.82.77-3.9,2.79-5.79,3.15-1.67.32-5.58.36-5.58.36l4.38-7.23Z"/><path class="cls-24" d="M121.42,168.73l-12.31,7.89-2.31,3.09s3.95-.12,5.35-.67c3.62-1.41,5.11-3.37,6.33-4.81,1.5-1.76,2.94-5.51,2.94-5.51Z"/><path class="cls-2" d="M90.34,188.39s6.35-5.07,9.28-7.86c3.48-3.31,12.41-13.91,13.01-14.17.42-.18-2.42,7.52-3.66,9.9-1.62,3.11-5.7,6.11-5.56,6.37.05.1,3.76-1.78,6.97-2.74,1.84-.55,7.61-1.83,7.74-1.55.15.32-4.93,4.49-8.86,6.11-4.49,1.85-9.97,2-9.97,2l-3.98,2.3-4.97-.39Z"/><path class="cls-24" d="M117.03,179.09s-6.39,2.89-8.74,3.6c-2.74.84-6.51,1.2-6.51,1.2,0,0,5.01-4.57,6.45-6.87,2.77-4.43,3.85-9.41,3.85-9.41,0,0-4.43,6.92-7.47,10.4-3.89,4.44-11.57,9.61-11.57,9.61l3.37.13,2.82-1.54s5.17-.18,9.85-1.96c3.63-1.38,7.96-5.17,7.96-5.17Z"/><path class="cls-2" d="M71.1,194.69l20.1-.32s14.21-4.14,14.15-4.75c-.05-.56-7.53-2.03-11.37-2.03-4.09,0-8.62,2.14-8.73,1.97-.14-.2,4.12-3.95,5.77-6.38,2.16-3.18,2.15-5.43,1.82-5.8-.41-.46-8.11,4.07-10.62,5.89-3.09,2.24-11.63,10.44-11.63,10.44l.52.98Z"/><path class="cls-24" d="M83.21,192.73l-10,1.68,8.17-.18,9.93-.19,12.15-3.81s-4.12-.53-10.51.06c-6.14.56-9.73,2.45-9.73,2.45Z"/><path class="cls-24" d="M86.22,184.9c-2.68,1.94-10.1,6.57-10.1,6.57l-.12.76s3.27-.19,5.24-.74c1.02-.29,3.6-1.98,3.6-1.98,0,0,4.28-4.55,5.66-6.17,1.22-1.44,1.9-3.41,2.11-4.68.07-.4,0-1,0-1,0,0-3.11,4.86-6.39,7.24Z"/><path class="cls-2" d="M125.45,78.03s-.21-3.1-1.24-4.95c-.53-.96-2.64-3.33-2.94-3.19-.21.09-.32,2.27-.44,2.96-.17.96-.88,3.4-.88,3.4l1.93,5.27,1.76.65,1.82-4.15Z"/><path class="cls-24" d="M122.91,80.65s-.29-3.28-.44-4.91c-.09-.96-.46-4.93-.46-4.93,0,0,1.32,1.01,2.27,3.1.54,1.18.8,3.06.8,3.06,0,0-.97,1.29-1.22,1.74-.31.56-.96,1.95-.96,1.95Z"/><path class="cls-2" d="M127.18,101.19s-.97-5.69-1.16-7.59c-.17-1.77.18-4.45.18-4.45,0,0,1.47-3.7,1.65-5.03.19-1.42-.08-4-.26-5.42-.2-1.57.38-3.72.06-3.86-.26-.11-1.96,1.95-2.7,2.78-1.01,1.16-2,3.86-2,3.86h-.2s-1.12-3.68-1.71-4.93c-.53-1.12-2.46-4.2-2.75-4.17-.25.02-1.02,3.28-1.19,4.52-.11.84-.15,3.21-.41,3.3-.23.09-2.06-1.51-3.31-1.91-.92-.3-3.68-.89-3.85-.55-.12.23,2.35,1.68,3.04,2.73,1.39,2.08,2.58,6.89,4.03,8.93,1.97,2.78,6.41,6.29,6.41,6.29l2.98,8.49.49-1.61.7-1.38Z"/><path class="cls-24" d="M124.38,95.24s-1.99-1.85-2.56-2.55c-1.06-1.3-2.8-4.17-3.68-5.59-.52-.83-1.43-2.57-1.97-3.39-.56-.86-2.43-3.33-2.43-3.33l-2.52-2.17s1.05,0,2.5.55c.75.29,3.17,1.93,3.17,1.93,0,0-.03,3.19,1.44,5.87,1.87,3.41,4.28,4.32,4.28,4.32,0,0-2.28-6.92-2.82-9.28-.49-2.13-1.34-8.63-1.34-8.63,0,0,1.8,1.96,2.82,4.7.41,1.1,1.47,4.29,1.47,4.29,0,0-.48,4.4-.36,5.88.12,1.46,1.28,5.77,1.28,5.77,0,0,1.08-8,1.59-10.64.4-2.05,1.98-6.92,1.98-6.92,0,0,.44,5.97.42,7.14-.05,2.37-1.79,6.06-1.79,6.06,0,0-.24,3.03-.02,5.26.1.94.64,4.08.64,4.08l-.47,3.57-1.62-6.9Z"/><path class="cls-2" d="M101.13,44.04c.34-.21,5.68,5.68,7.4,9.33,1.6,3.42,2.49,12.44,2.08,12.59-.32.11-5.16-8.84-6.56-12.27-.96-2.35-3.24-9.44-2.91-9.65Z"/><path class="cls-24" d="M101.45,44.6l4.81,10.57,4.16,9.65s-.48-8.58-2.55-12.03c-3.47-5.75-6.42-8.2-6.42-8.2Z"/><path class="cls-24" d="M102.41,177.27l5.1-13.09s.42,1.73.62,3.34c.13,1.1.19,3.14.19,3.14l-5.9,6.62Z"/><path class="cls-2" d="M128.41,116.56s4.41-6.12,4.37-13.19c-.02-3.52-4.1-12.92-4.55-12.83-.71.14-1.35,9.05-2.3,13.55-.66,3.15,2.48,12.47,2.48,12.47Z"/><path class="cls-24" d="M128.23,91.26l.54,24.26s4.43-6.77,3.74-12.38c-.95-7.7-4.28-11.88-4.28-11.88Z"/><path class="cls-2" d="M122.82,101.58s-2.22-1.86-2.92-2.54c-.72-.7-2.44-3.23-2.76-3-.3.22,1.19,5.36,2.87,7.87.93,1.39,4.22,5.25,4.22,5.25l-1.41-7.57Z"/><path class="cls-12" d="M119.73,99.21c-.27-.27-.67-.77-1.09-1.3-.4-.5-.96-1.22-1.29-1.52.14,1.13,1.41,5.21,2.85,7.38.67,1.01,2.63,3.36,3.62,4.53l-1.23-6.6c-.38-.32-2.23-1.88-2.87-2.5Z"/><path class="cls-24" d="M117.65,97.01s1.57,2.38,2.12,3.15c.69.97,2.85,3.8,2.85,3.8l-.47-2.56s-1.64-1.38-2.14-1.87c-.62-.61-2.36-2.52-2.36-2.52Z"/><path class="cls-2" d="M114.72,64.82s-1.8-3.03-2.52-3.96c-.86-1.11-3.46-4.29-3.77-4.1-.26.16,3.53,10.85,3.53,10.85l1.98,2.64,1.25-.49-.47-4.94Z"/><path class="cls-24" d="M114.26,69.23l-5.32-11.75s1.37,1.35,2.81,3.24c.99,1.3,2.23,3.42,2.23,3.42,0,0,.09,2.78.19,3.65.08.75.09,1.44.09,1.44Z"/><path class="cls-2" d="M96.88,49.06s-4.8-2.69-6.5-3.18c-2.34-.66-9.36-1.78-9.59-1.31-.2.39,5.79,4.63,8.43,5.76,2.74,1.17,11.2,3.86,11.2,3.86l-3.53-5.14Z"/><path class="cls-24" d="M81.82,44.84l15.98,7.37-2.41-3.68s-3.5-1.87-5.44-2.44c-3.83-1.12-8.14-1.25-8.14-1.25Z"/><path class="cls-2" d="M114.63,71.27s-.36-5.57-.42-7.51c-.05-1.68,0-6.72.33-6.83.52-.16,3.71,5.77,4.07,8.22.57,3.79-1.7,10.29-1.7,10.29l-2.28-4.17Z"/><path class="cls-24" d="M114.7,57.42l2.26,17.02s1.98-6.05,1.39-9.28c-.68-3.75-3.65-7.75-3.65-7.75Z"/><path class="cls-2" d="M128.99,119.74s-.63-8.88-1.38-11.84c-1.06-4.18-5.4-12.25-5.95-11.96-.41.22,1.81,9.93,2.12,13.28.51,5.5,4.12,12.19,4.12,12.19l1.09-1.67Z"/><path class="cls-24" d="M122.24,97.09s0,.68.32,1.87c.75,2.83,2.32,8.04,2.88,10.2.76,2.93,2.9,11.61,2.9,11.61l.35-1.93s-.49-7.85-1.44-11.08c-1.6-5.44-5.02-10.67-5.02-10.67Z"/><path class="cls-2" d="M117.08,75.82c.15-.18-2.02-6.44-5.8-9.7-3.52-3.04-10.64-5.76-11.12-5.32-.33.3,6.88,8.17,8.98,10.18,3.2,3.08,7.76,5.06,7.95,4.84Z"/><path class="cls-24" d="M100.86,61.11s6.43,5.51,8.61,7.39c1.78,1.54,7.09,6.35,7.09,6.35,0,0-1.91-5.61-5.61-8.67-4.54-3.75-10.09-5.07-10.09-5.07Z"/><path class="cls-2" d="M106.76,59.8s-.88-6.48-4.4-10.56c-2.63-3.05-9.32-6.36-9.6-5.96-.26.37,5.2,9,6.4,10.44,1.23,1.47,7.6,6.08,7.6,6.08Z"/><path class="cls-24" d="M93.16,43.68l11.23,12.62,1.77,1.58s-1.53-6.03-4.23-8.71c-4.79-4.73-8.77-5.5-8.77-5.5Z"/><path class="cls-2" d="M109.8,62.56c.19-.34-4.32-5.92-8.2-7.72-4.37-2.03-12.16-2.4-12.36-1.84-.09.25,6.88,4.79,9.28,6.28,4.76,2.96,11.08,3.64,11.28,3.28Z"/><path class="cls-24" d="M89.85,53.07l19.36,8.91s-3.76-5.33-8.09-7.04c-5.15-2.03-11.27-1.87-11.27-1.87Z"/><path class="cls-15" d="M84.39,208.32c-1.53-3-3.86-4.9-4.46-4.94-.88-.06-3.08,1.17-3.08,1.17,0,0-2.47-2.25-3.51-4.12-.54-.96-1.68-4.17-1.68-4.17,0,0,8.56-5.92,8.48-9.52-.13-6.11-7.97-2.47-11.01-2.51-2.95-.04-9.69-3.08-11.26,1.62-1.91,5.7,9.37,10.19,9.37,10.19,0,0-1.92,4.01-2.83,4.91-1.47,1.47-3.6,3.9-4.52,4-.6.07-1.74-1.74-4.06-.92-3.86,1.34-3.77,10.14-3.77,10.14,0,0,1.61-.26,2.14-.15.64.13,2.32,1.2,2.32,1.2l.15-7.79s4.1,1.72,5.83,1.37c1.01-.2,1.72-1.07,2.6-2.17,3.6-4.51,4.03-9.27,4.03-9.27,0,0,.82,5.53,1.6,7.93.22.67.15,4.2,3.51,4.81,1.52.28,5.42-1.78,5.42-1.78,0,0,1.04,1.39,1.47,2.69.29.87.86,3.99.86,3.99l1.8-1.57,2.02.15s-.61-3.64-1.43-5.25ZM69.68,193.95l-2.71-1.09s-1.84-1.58-2.74-2.71c-1.03-1.29-2.07-3.35-2.07-3.35,0,0,1.26.12,2.78.45,1.52.34,3.31.89,4.21.9.79.01,2.53-.42,3.91-.68,1.38-.26,2.41-.34,2.41-.34,0,0-1.37,2.44-1.92,3.2-.49.67-2.14,2.52-2.14,2.52l-1.73,1.09Z"/><path class="cls-26" d="M56.64,215.43l-.18-.11s-1.67-1.06-2.28-1.18c-.49-.1-2.08.15-2.1.15l-.14.02v-.14s-.02-2.24.44-4.59c.62-3.19,1.77-5.09,3.41-5.66,1.67-.58,2.74.13,3.45.6.27.18.51.33.64.32.69-.08,2.23-1.68,3.47-2.96.34-.36.67-.7.98-1,.79-.79,2.43-4.11,2.75-4.77-.57-.24-3.04-1.31-5.3-2.92-3.42-2.43-4.81-4.98-4.01-7.37,1.21-3.63,5.32-2.8,8.62-2.13,1.05.21,2.03.41,2.76.42.02,0,.03,0,.05,0,.74,0,1.78-.21,2.88-.44,2.41-.5,5.41-1.11,7.02.17.75.6,1.15,1.58,1.18,2.9.07,3.48-7.55,8.94-8.46,9.57.19.52,1.16,3.21,1.64,4.07.93,1.66,3.03,3.66,3.42,4.03.4-.22,2.24-1.21,3.07-1.14.71.05,3.05,2.04,4.56,5.01.82,1.61,1.42,5.14,1.44,5.29l.02.15-2.13-.16-1.92,1.68-.04-.21s-.57-3.12-.86-3.97c-.36-1.09-1.17-2.26-1.4-2.57-.61.32-3.96,2-5.4,1.74-2.91-.53-3.32-3.14-3.51-4.4-.03-.22-.06-.4-.09-.49-.61-1.85-1.23-5.57-1.49-7.18-.29,1.54-1.21,5.15-3.94,8.56-.85,1.07-1.59,1.99-2.67,2.21-1.57.31-4.95-.99-5.74-1.31l-.15,7.83ZM53.84,213.87c.15,0,.28,0,.38.03.53.11,1.73.82,2.18,1.1l.15-7.76.16.07s4.09,1.7,5.76,1.36c.99-.2,1.7-1.09,2.53-2.12,3.53-4.43,4-9.16,4-9.21l.09-1,.15,1c0,.05.82,5.54,1.6,7.91.04.12.07.3.1.53.19,1.2.57,3.7,3.32,4.2,1.46.26,5.3-1.74,5.34-1.76l.09-.05.06.08c.04.06,1.06,1.42,1.49,2.72.25.75.69,3.08.83,3.8l1.68-1.47,1.92.14c-.12-.7-.68-3.67-1.39-5.07h0c-1.48-2.9-3.79-4.83-4.36-4.87-.84-.06-2.99,1.14-3.01,1.15l-.08.04-.06-.06s-2.5-2.29-3.53-4.15c-.54-.96-1.64-4.06-1.69-4.19l-.03-.09.08-.05c.09-.06,8.51-5.93,8.43-9.42-.03-1.27-.38-2.16-1.09-2.72-1.52-1.21-4.46-.61-6.82-.12-1.14.23-2.22.47-2.98.44-.75-.01-1.75-.21-2.8-.43-3.21-.65-7.2-1.46-8.34,1.97-1.85,5.53,9.18,10,9.3,10.04l.12.05-.06.12c-.08.16-1.94,4.04-2.85,4.95-.3.3-.63.64-.97,1-1.4,1.45-2.84,2.95-3.62,3.04-.23.03-.47-.14-.8-.36-.67-.44-1.68-1.12-3.23-.57-3.47,1.21-3.68,8.76-3.69,9.89.32-.05,1.11-.16,1.66-.16ZM69.69,194.09l-2.8-1.13s-1.86-1.6-2.76-2.72c-1.03-1.28-2.07-3.35-2.08-3.37l-.1-.19.22.02s1.28.12,2.8.45c.5.11,1.02.24,1.53.37,1.06.27,2.06.52,2.66.53.55,0,1.6-.21,2.62-.42.43-.09.86-.18,1.27-.25,1.37-.25,2.41-.34,2.42-.34l.22-.02-.11.2c-.06.1-1.38,2.45-1.92,3.21-.48.67-2.08,2.45-2.15,2.53l-.02.02-1.78,1.12ZM67.04,192.76l2.63,1.06,1.66-1.05c.15-.16,1.67-1.86,2.12-2.5.44-.62,1.46-2.39,1.8-2.98-.38.04-1.18.13-2.17.32-.4.07-.83.16-1.26.25-1.08.22-2.09.43-2.67.43-.62,0-1.64-.26-2.71-.54-.51-.13-1.03-.26-1.52-.37-1.13-.25-2.12-.38-2.55-.43.29.54,1.13,2.09,1.95,3.13.84,1.05,2.54,2.53,2.71,2.68Z"/><path class="cls-9" d="M58.31,186.7s.17-1.69,1.04-2.17c2.18-1.2,7.39.78,9.88.78s7.33-1.9,9.53-.95c.34.15.65.87.78,1.21.15.39.04,1.47.04,1.47,0,0-.91-1.6-4.72-1.47-1.45.05-4.23,1.2-5.68,1.21-1.52.01-4.16-1.08-6.15-1-1.25.05-4.72.91-4.72.91Z"/><path class="cls-9" d="M58.7,187.56l1.78-.56s2.04,2.77,2.95,3.86c.62.73,2.69,2.34,2.69,2.34l-.69,1.04s-2.19-1.63-3.68-2.9-3.03-3.77-3.03-3.77Z"/><path class="cls-9" d="M78.45,188.04l-1.82-.56s-.95,2.12-1.86,3.21c-.62.73-2.34,2.6-2.34,2.6l.56.56s1.19-.89,2.69-2.17,2.77-3.64,2.77-3.64Z"/><path class="cls-9" d="M60.83,206.25s2.37-1.7,3.84-3.61c2.27-2.94,2.43-4.25,2.43-4.25l1.21.26s-1.03,2.71-2.38,4.59c-1.43,1.99-3.28,3.54-3.28,3.54l-1.82-.53Z"/><path class="cls-9" d="M70.18,198.74l1.13-.22s1.21,2.85,1.65,3.64c.46.83,1.95,2.82,1.95,2.82l-2.38.35s-1.04-1.73-1.43-2.95c-.27-.84-.91-3.64-.91-3.64Z"/><path class="cls-9" d="M54.49,206.2s-.66,2.32-.91,3.86c-.17,1.03-.21,3.69-.21,3.69,0,0,.38-.13.75-.11s.72.31.72.31c0,0-.02-2.66.09-3.59.09-.8.75-3.39.75-3.39l-1.18-.78Z"/><path class="cls-9" d="M80.79,207.02l1.45-.52s1.32,2.85,1.58,3.63c.23.68.71,2.73.71,2.73,0,0-.49.06-.9.22-.44.16-.9.66-.9.66,0,0-.11-1.75-.46-3.14-.2-.77-1.48-3.58-1.48-3.58Z"/><path class="cls-9" d="M73.48,205.76c1.38.26,3.7.43,5.62-1.3.8-.72,2.14.2,2.14.2l1.42,1.64s-.82-.11-1.07-.08c-1.46.18-3.53,2.04-4.9,2.59-2.61,1.05-4.35-.48-4.57-.83-.18-.29-1.76-2.81,1.36-2.22Z"/><path class="cls-9" d="M54.63,205.59s.73-1.34,1.84-1.39c2.63-.1,3.43,1.93,4.64,2.35.82.29,2.96.73,2.96.73,0,0-.82,1.07-2.16,1.18-.69.06-2.26-.27-2.92-.46-2.15-.61-4.35-2.42-4.35-2.42Z"/><path class="cls-13" d="M73.53,195.62c.1,1.73-1.27,3.2-4.24,3.13-2.87-.06-4.36-1.41-4.24-3.13.17-2.36,1.09-2.84,3.38-3.07.28-.03.56-.06.85-.06,2.34,0,4.1.68,4.24,3.13Z"/><path class="cls-9" d="M67.46,195.53c-.08,1.32.88,3.1.88,3.1,0,0,.57.1.77.11.22,0,.9-.05.9-.05,0,0,1.06-1.09,1.06-3.01,0-1.13-1.09-3.15-1.09-3.15,0,0-.66-.08-.88-.08-.18,0-.7.08-.7.08,0,0-.86,1.57-.94,3Z"/><text class="cls-8" transform="translate(170.27 85.89)"><tspan x="0" y="0">PODER</tspan><tspan x="0" y="48.41">L</tspan><tspan class="cls-20" x="32.58" y="48.41">E</tspan><tspan class="cls-11" x="68.67" y="48.41">GIS</tspan><tspan class="cls-19" x="162.36" y="48.41">L</tspan><tspan class="cls-17" x="195.27" y="48.41">A</tspan><tspan x="234.7" y="48.41">T</tspan><tspan class="cls-5" x="268.03" y="48.41">I</tspan><tspan class="cls-22" x="285.51" y="48.41">V</tspan><tspan class="cls-1" x="324.51" y="48.41">O</tspan></text><text class="cls-6" transform="translate(171.06 164.6)"><tspan x="0" y="0">DE LA PR</tspan><tspan class="cls-25" x="104.79" y="0">O</tspan><tspan x="127.35" y="0">VINCIA DEL CH</tspan><tspan class="cls-25" x="311.59" y="0">A</tspan><tspan x="327.66" y="0">CO</tspan></text></svg>